<svg width="44" height="44" viewBox="-6 -2 44 46" fill="none" xmlns="http://www.w3.org/2000/svg">
<path d="M29.518 14.762C27.266 11.938 24.101 10.299 21.112 10.299C17.165 10.299 15.496 12.188 12.754 12.188C9.927 12.188 7.78 10.304 4.367 10.304C1.015 10.304 -2.555 12.353 -4.818 15.856C-8 20.79 -7.455 30.066 -2.299 37.966C-0.454 40.793 2.01 43.972 5.233 44C8.101 44.027 8.91 42.16 12.796 42.141C16.681 42.119 17.418 44.025 20.281 43.994C23.507 43.97 26.106 40.447 27.951 37.62C29.274 35.593 29.766 34.573 30.792 32.285C23.331 29.444 22.135 18.835 29.518 14.762Z" fill="#444B59"/>
<path d="M20.248 10C22.594 9.838 25.335 8.336 26.87 6.381C28.255 4.607 29.341 2.023 28.873 -0.5C26.31 -0.42 23.569 1.117 22.12 3.119C20.785 4.945 19.699 7.527 20.248 10Z" fill="#444B59"/>
</svg>
