<svg width="44" height="44" viewBox="0 0 44 44" fill="none" xmlns="http://www.w3.org/2000/svg">
<path d="M43.611 22.496C43.611 20.936 43.476 19.428 43.224 17.972H22.4V26.48H34.298C33.762 29.28 32.162 31.648 29.762 33.208V38.728H36.962C41.162 34.848 43.611 29.168 43.611 22.496Z" fill="#8699DA"/>
<path d="M22.4 44C28.35 44 33.35 42.016 36.962 38.728L29.762 33.208C27.762 34.528 25.25 35.328 22.4 35.328C16.65 35.328 11.762 31.408 10.012 26.128H2.562V31.808C6.162 38.928 13.712 44 22.4 44Z" fill="#8699DA"/>
<path d="M10.012 26.128C9.562 24.808 9.312 23.408 9.312 21.952C9.312 20.496 9.562 19.096 10.012 17.776V12.096H2.562C1.062 15.056 0.2 18.4 0.2 21.952C0.2 25.504 1.062 28.848 2.562 31.808L10.012 26.128Z" fill="#9EB0EA"/>
<path d="M22.4 8.624C25.512 8.624 28.3 9.712 30.5 11.824L37.112 5.248C33.35 1.744 28.35 -0.4 22.4 -0.4C13.712 -0.4 6.162 4.672 2.562 11.792L10.012 17.472C11.762 12.192 16.65 8.624 22.4 8.624Z" fill="#8699DA"/>
</svg>
