<?xml version="1.0" standalone="no"?><!DOCTYPE svg PUBLIC "-//W3C//DTD SVG 1.1//EN" "http://www.w3.org/Graphics/SVG/1.1/DTD/svg11.dtd"><svg t="1779509514503" class="icon" viewBox="0 0 1024 1024" version="1.1" xmlns="http://www.w3.org/2000/svg" p-id="5328" xmlns:xlink="http://www.w3.org/1999/xlink" width="200" height="200"><path d="M244.06 261.47L101.64 610.73c-3.88 9.51-0.14 20.42 8.76 25.54 53.38 30.69 241.83 127.75 508.03 139.07 8.7 0.37 15.55 7.56 15.55 16.26v80.2c0.01 7.74 9.42 11.57 14.83 6.03l296.04-303.3c8.8-9.02 10-23.01 2.84-33.39L737.47 236.18c-4.15-6.03-13.45-4.47-15.42 2.58l-21.29 76.14a16.28 16.28 0 0 1-15.48 11.9c-49.12 0.6-237.78-2.39-414.17-76.47-10.56-4.43-22.7 0.54-27.03 11.14z" fill="#FF6D33" p-id="5329"></path><path d="M618.46 787.83c-0.18 0-0.36 0-0.54-0.01-115.11-4.9-228.59-26.06-337.31-62.92-87.18-29.56-147.96-61.43-176.43-77.8-5.98-3.44-8.05-11.08-4.61-17.07 3.44-5.98 11.08-8.05 17.07-4.61 51.13 29.4 238.45 126.19 502.33 137.42 6.9 0.29 12.25 6.12 11.96 13.02-0.29 6.72-5.82 11.97-12.48 11.97z" p-id="5330"></path><path d="M542.48 472.5a46.66 104.5 0 1 0 93.32 0 46.66 104.5 0 1 0-93.32 0Z" fill="#FFFFFF" p-id="5331"></path><path d="M589.14 368c-4 0-7.88 1.13-11.58 3.25-12.41 17.62-20.65 48.65-20.65 84 0 54.89 19.87 99.39 44.37 99.39 8.76 0 16.92-5.68 23.79-15.49 6.69-18.09 10.72-41.31 10.72-66.64 0-57.71-20.89-104.5-46.66-104.5z" p-id="5332"></path><path d="M695.28 472.5a46.66 104.5 0 1 0 93.32 0 46.66 104.5 0 1 0-93.32 0Z" fill="#FFFFFF" p-id="5333"></path><path d="M741.94 368c-4 0-7.88 1.13-11.58 3.25-12.41 17.62-20.65 48.65-20.65 84 0 54.89 19.87 99.39 44.37 99.39 8.76 0 16.92-5.68 23.79-15.49 6.69-18.09 10.72-41.31 10.72-66.64 0-57.71-20.89-104.5-46.66-104.5zM642.65 692.75c-14.98 0-31.86-2.3-50.31-8.39-6.56-2.16-10.12-9.23-7.96-15.79 2.16-6.56 9.23-10.12 15.79-7.96 29.24 9.65 57.11 9.62 82.83-0.08 19.39-7.31 30.33-17.71 30.44-17.81 4.93-4.83 12.82-4.74 17.66 0.19 4.83 4.93 4.74 12.86-0.19 17.7-0.56 0.55-13.99 13.56-37.79 22.82-12.6 4.9-29.71 9.32-50.47 9.32z" p-id="5334"></path><path d="M757.53 674.26c-28.71 0-53.6-21.55-57.04-50.76-0.81-6.86 4.1-13.07 10.95-13.88 6.86-0.8 13.07 4.1 13.88 10.95 2.09 17.78 18.26 30.55 36.05 28.45 6.86-0.8 13.07 4.1 13.88 10.95s-4.1 13.07-10.95 13.88c-2.27 0.27-4.53 0.4-6.76 0.4z" p-id="5335"></path></svg>