<?xml version="1.0" standalone="no"?><!DOCTYPE svg PUBLIC "-//W3C//DTD SVG 1.1//EN" "http://www.w3.org/Graphics/SVG/1.1/DTD/svg11.dtd"><svg t="1779509511691" class="icon" viewBox="0 0 1024 1024" version="1.1" xmlns="http://www.w3.org/2000/svg" p-id="5164" xmlns:xlink="http://www.w3.org/1999/xlink" width="200" height="200"><path d="M758.83 887.01l-521.26-51.77c-65.87-6.54-99.96-81.94-61.36-135.72l305.47-425.54c38.6-53.78 120.95-45.6 148.22 14.72l215.79 477.31c27.27 60.32-20.98 127.54-86.86 121z" fill="#FFBE3B" p-id="5165"></path><path d="M768.67 899.95c-3.34 0-6.7-0.17-10.08-0.5l-399.06-39.64c-6.87-0.68-11.89-6.8-11.2-13.67 0.68-6.87 6.8-11.88 13.67-11.2l399.06 39.64c26.44 2.63 51.47-8.69 66.97-30.28 15.49-21.58 18.21-48.92 7.26-73.14l-35.03-77.48c-2.84-6.29-0.05-13.7 6.24-16.54s13.7-0.05 16.54 6.24l35.03 77.48c14.67 32.45 11.03 69.09-9.74 98.01-18.78 26.17-48.03 41.08-79.67 41.08z" p-id="5166"></path><path d="M449 320s43-54 15.93-97.13c0 0-64.93-78.87 15.07-110.87 0 0 84-24 85.89 85.8 0 0 0.11 14.2 2.96 31.37 0 0 1.15 7.83 8.15 9.83 0 0 7 3 11.8-5.63 0 0 22.2-43.37 52.2-38.37 0 0 23 4 29 29 0 0 5 27-17.17 41.91 0 0-28.34 11.55-15.75 38.84L449 320z" fill="#FFBE3B" p-id="5167"></path><path d="M532.88 608.79a78.34 97.79 0 1 0 156.68 0 78.34 97.79 0 1 0-156.68 0Z" fill="#FFFFFF" p-id="5168"></path><path d="M538.98 606.39a55.28 76.52 0 1 0 110.56 0 55.28 76.52 0 1 0-110.56 0Z" p-id="5169"></path><path d="M346.08 605.08a72.96 91.08 0 1 0 145.92 0 72.96 91.08 0 1 0-145.92 0Z" fill="#FFFFFF" p-id="5170"></path><path d="M355.56 604.27a51.48 71.27 0 1 0 102.96 0 51.48 71.27 0 1 0-102.96 0Z" p-id="5171"></path><path d="M489 754.5a27.5 34.5 0 1 0 55 0 27.5 34.5 0 1 0-55 0Z" p-id="5172"></path><path d="M377.99 510.5c-2.44 0-4.91-0.71-7.07-2.2-5.69-3.91-7.13-11.69-3.22-17.38 24.15-35.13 62.9-47.73 64.54-48.25 6.58-2.08 13.61 1.56 15.69 8.14 2.08 6.57-1.55 13.58-8.11 15.68-0.34 0.11-32.36 10.71-51.52 38.59-2.42 3.53-6.33 5.42-10.31 5.42zM672.12 502.38c-3.99 0-7.91-1.91-10.33-5.45-0.37-0.54-19.67-27.98-51.72-38.31-6.57-2.12-10.18-9.16-8.06-15.73 2.12-6.57 9.16-10.18 15.73-8.06 40.58 13.09 63.73 46.61 64.7 48.03 3.88 5.71 2.4 13.48-3.31 17.37-2.15 1.46-4.6 2.16-7.02 2.16z" p-id="5173"></path></svg>