<?xml version="1.0" standalone="no"?><!DOCTYPE svg PUBLIC "-//W3C//DTD SVG 1.1//EN" "http://www.w3.org/Graphics/SVG/1.1/DTD/svg11.dtd"><svg t="1779509503152" class="icon" viewBox="0 0 1024 1024" version="1.1" xmlns="http://www.w3.org/2000/svg" p-id="4680" xmlns:xlink="http://www.w3.org/1999/xlink" width="200" height="200"><path d="M101.136985 562.142132a216.51 414.36 83.29 1 0 823.043493-96.831023 216.51 414.36 83.29 1 0-823.043493 96.831023Z" fill="#FF6D33" p-id="4681"></path><path d="M838.5 212.02c59.15 97.31-38.76 311.25-218.71 477.85-179.94 166.6-373.77 222.78-432.92 125.47-59.15-97.31 38.76-311.25 218.71-477.85 179.94-166.6 373.77-222.78 432.92-125.47z" fill="#FF6D33" p-id="4682"></path><path d="M125.72 295.93c-34.94 108.39 109.99 293.74 323.7 413.99 213.71 120.26 415.29 129.88 450.22 21.5 34.94-108.39-109.99-293.74-323.7-413.99-213.71-120.26-415.29-129.88-450.22-21.5z" fill="#FF6D33" p-id="4683"></path><path d="M298.449213 528.773754a105.49 88.67 83.29 1 0 176.125269-20.721129 105.49 88.67 83.29 1 0-176.125269 20.721129Z" fill="#FFFFFF" p-id="4684"></path><path d="M541.413285 500.191219a105.49 88.67 83.29 1 0 176.125269-20.721128 105.49 88.67 83.29 1 0-176.125269 20.721128Z" fill="#FFFFFF" p-id="4685"></path><path d="M308.961125 527.76381a61.62 51.79 83.29 1 0 102.870505-12.10271 61.62 51.79 83.29 1 0-102.870505 12.10271Z" p-id="4686"></path><path d="M551.915272 499.18256a61.62 51.79 83.29 1 0 102.870505-12.102709 61.62 51.79 83.29 1 0-102.870505 12.102709Z" p-id="4687"></path><path d="M498.65 681.75c-14.98 0-31.86-2.3-50.31-8.39-6.56-2.16-10.12-9.23-7.96-15.79s9.23-10.12 15.79-7.96c29.24 9.65 57.11 9.62 82.83-0.08 19.39-7.31 30.33-17.71 30.44-17.81 4.93-4.83 12.82-4.74 17.66 0.19 4.83 4.93 4.74 12.86-0.19 17.7-0.56 0.55-13.99 13.56-37.79 22.82-12.6 4.9-29.71 9.32-50.47 9.32z" p-id="4688"></path><path d="M613.53 663.26c-28.71 0-53.6-21.55-57.04-50.76-0.81-6.86 4.1-13.07 10.95-13.88 6.86-0.81 13.07 4.1 13.88 10.95 2.09 17.78 18.26 30.55 36.05 28.45 6.86-0.81 13.07 4.1 13.88 10.95s-4.1 13.07-10.95 13.88c-2.27 0.27-4.53 0.4-6.76 0.4zM285.06 878.4c-20.07 0-38.31-2.99-54.31-8.99-6.46-2.43-9.74-9.63-7.31-16.09 2.42-6.46 9.63-9.74 16.09-7.31 33.05 12.4 78.73 9.29 132.11-8.99 55.27-18.93 116.1-53.32 175.92-99.46 5.47-4.22 13.32-3.2 17.53 2.26 4.22 5.47 3.2 13.32-2.26 17.53-61.96 47.79-125.27 83.51-183.09 103.31-34.47 11.81-66.4 17.74-94.68 17.74z" p-id="4689"></path></svg>