<?xml version="1.0" standalone="no"?><!DOCTYPE svg PUBLIC "-//W3C//DTD SVG 1.1//EN" "http://www.w3.org/Graphics/SVG/1.1/DTD/svg11.dtd"><svg t="1779509488889" class="icon" viewBox="0 0 1024 1024" version="1.1" xmlns="http://www.w3.org/2000/svg" p-id="3873" xmlns:xlink="http://www.w3.org/1999/xlink" width="200" height="200"><path d="M480.59 273.68c-11.88 15.23-34 17.4-48.57 4.71-39.12-34.07-117.91-83.31-210.56-35.52 0 0-164.19 92.52-68.35 288.41 0 0 139.97 222.38 305.32 268.72 0 0 216.57 99 416.64-323.43 0 0 93.09-221.07-103.85-302.16 0 0-162.55-64.83-290.63 99.26z" fill="#FF314A" p-id="3874"></path><path d="M519.98 822.62c-38.46 0-62.22-10.55-63.75-11.25-6.28-2.87-9.04-10.29-6.17-16.57 2.86-6.26 10.25-9.03 16.52-6.19 0.66 0.29 52.11 22.49 125.97-4.41 43.88-15.98 87.04-45.88 128.28-88.86 52.15-54.35 101.25-129.75 145.95-224.11 2.95-6.24 10.41-8.9 16.65-5.95 6.24 2.96 8.9 10.41 5.95 16.65-46.22 97.59-97.3 175.67-151.81 232.08-44.21 45.75-90.86 77.53-138.66 94.47-30.17 10.69-56.94 14.14-78.92 14.14z" p-id="3875"></path><path d="M545.8 438.93a62.1 72.93 0 1 0 124.2 0 62.1 72.93 0 1 0-124.2 0Z" fill="#FFFFFF" p-id="3876"></path><path d="M566.8 417.32a41.1 45.32 0 1 0 82.2 0 41.1 45.32 0 1 0-82.2 0Z" p-id="3877"></path><path d="M343.8 438.93a62.1 72.93 0 1 0 124.2 0 62.1 72.93 0 1 0-124.2 0Z" fill="#FFFFFF" p-id="3878"></path><path d="M364.8 417.32a41.1 45.32 0 1 0 82.2 0 41.1 45.32 0 1 0-82.2 0Z" p-id="3879"></path><path d="M307.67 378.5c-5.84 0-11.07-4.12-12.25-10.07-1.34-6.77 3.06-13.35 9.83-14.69 35.92-7.13 48.16-27.57 48.66-28.44l-0.07 0.13 21.92 12.03c-0.48 0.87-4.98 8.79-15.37 17.61-13.3 11.29-30.68 19.31-50.27 23.2-0.82 0.16-1.64 0.24-2.45 0.24zM669.81 343.5c-0.81 0-1.63-0.08-2.45-0.24-19.59-3.89-36.97-11.91-50.27-23.2-10.39-8.82-14.89-16.73-15.37-17.61l21.92-12.03-0.07-0.13c0.5 0.87 12.74 21.31 48.66 28.44 6.77 1.34 11.17 7.92 9.83 14.69-1.18 5.95-6.4 10.07-12.25 10.07zM478.65 644.45c-16.48 0-34.45-1.87-53.77-6.44-6.72-1.59-10.87-8.33-9.28-15.04 1.59-6.72 8.33-10.87 15.04-9.28 103.21 24.44 163.52-36.4 164.12-37.02 4.8-4.96 12.71-5.09 17.68-0.29 4.96 4.8 5.09 12.71 0.29 17.68-0.73 0.75-18.22 18.62-50.14 32.86-19.94 8.9-48.47 17.55-83.94 17.55z" p-id="3880"></path><path d="M618.01 603.64c-3.67 0-7.3-1.61-9.77-4.69l-16.47-20.59c-4.31-5.39-3.44-13.26 1.95-17.57 5.39-4.31 13.26-3.44 17.57 1.95l16.47 20.59c4.31 5.39 3.44 13.26-1.95 17.57-2.3 1.84-5.06 2.74-7.8 2.74z" p-id="3881"></path></svg>