<?xml version="1.0" standalone="no"?><!DOCTYPE svg PUBLIC "-//W3C//DTD SVG 1.1//EN" "http://www.w3.org/Graphics/SVG/1.1/DTD/svg11.dtd"><svg t="1779509505592" class="icon" viewBox="0 0 1024 1024" version="1.1" xmlns="http://www.w3.org/2000/svg" p-id="4844" xmlns:xlink="http://www.w3.org/1999/xlink" width="200" height="200"><path d="M500.09 180.44C334.9 309.89 204.12 444.47 107.2 630.61l-2.95 5.66c-32.38 62.18-2.46 138.62 63.5 162.35a1749.528 1749.528 0 0 0 612.83 103.04c70.09-0.85 123.37-63.3 113.1-132.65l-0.94-6.31c-30.68-207.6-110.25-377.58-224.06-553.91-36.91-57.22-115.02-70.35-168.62-28.35h0.03z" fill="#FFBE3B" p-id="4845"></path><path d="M759.4 914.29c-203.66 0-404.01-34.93-595.88-103.91-6.5-2.34-9.87-9.5-7.53-15.99 2.34-6.5 9.5-9.87 15.99-7.53 195.74 70.37 400.45 104.8 608.45 102.31 29.81-0.36 58-13.58 77.34-36.27a103.194 103.194 0 0 0 23.55-82.06c-1.01-6.83 3.71-13.18 10.54-14.2 6.83-1.01 13.18 3.71 14.2 10.54 5.42 36.61-5.25 73.77-29.26 101.93a128.248 128.248 0 0 1-96.06 45.05c-7.11 0.08-14.22 0.13-21.32 0.13z" p-id="4846"></path><path d="M435.858609 626.60464a74.3 111.44 3 1 0 11.664638-222.574551 74.3 111.44 3 1 0-11.664638 222.574551Z" fill="#FFFFFF" p-id="4847"></path><path d="M491.26 469.22c8.46 0.44 16.17 4.43 22.55 10.98 2.37 12.25 3.33 25.42 2.61 39.09-1.75 33.29-13.06 62.64-29.57 82.23-0.84 0.03-1.69 0.02-2.54-0.02-24.35-1.28-42.54-31.92-40.62-68.45 1.92-36.53 23.21-65.1 47.56-63.82z" p-id="4848"></path><path d="M645.209312 629.68789a63.14 94.72 3 1 0 9.914524-189.180379 63.14 94.72 3 1 0-9.914524 189.180379Z" fill="#FFFFFF" p-id="4849"></path><path d="M692.33 495.93c7.19 0.38 13.74 3.77 19.17 9.33 2.01 10.41 2.83 21.61 2.22 33.22-1.48 28.29-11.1 53.24-25.13 69.88-0.71 0.02-1.43 0.02-2.15-0.02-20.7-1.09-36.15-27.13-34.52-58.17 1.63-31.04 19.73-55.33 40.42-54.24zM366.54 405.78c-4.91 0-9.56-2.91-11.55-7.72-2.64-6.37 0.38-13.67 6.74-16.32 0.54-0.23 31.91-13.77 48.84-43.59 3.41-6 11.04-8.1 17.04-4.7 6 3.41 8.11 11.04 4.7 17.04-21.34 37.58-59.38 53.66-60.98 54.33-1.56 0.65-3.18 0.95-4.78 0.95zM709.27 433.42c-0.86 0-1.74-0.09-2.61-0.28-35.58-7.57-58.16-34.01-59.1-35.13-4.44-5.28-3.77-13.17 1.52-17.61 5.27-4.44 13.14-3.77 17.59 1.49 0.26 0.3 18.29 21.08 45.2 26.81 6.75 1.44 11.06 8.08 9.62 14.83-1.25 5.88-6.44 9.9-12.21 9.9z" p-id="4850"></path><path d="M493.5 726.5a57.89 72.5 0 1 0 115.78 0 57.89 72.5 0 1 0-115.78 0Z" p-id="4851"></path></svg>