<?xml version="1.0" standalone="no"?><!DOCTYPE svg PUBLIC "-//W3C//DTD SVG 1.1//EN" "http://www.w3.org/Graphics/SVG/1.1/DTD/svg11.dtd"><svg t="1779509492679" class="icon" viewBox="0 0 1024 1024" version="1.1" xmlns="http://www.w3.org/2000/svg" p-id="4036" xmlns:xlink="http://www.w3.org/1999/xlink" width="200" height="200"><path d="M923.26 422.74c-2.69-93.06-92.47-165.98-200.53-162.86-11.86 0.34-23.45 1.59-34.68 3.65-28.3-57.54-92.19-100.01-168.93-105.04-79.47-5.21-150.54 31.19-184.88 87.86-6.14-0.91-12.37-1.59-18.69-2-107.87-7.07-200.26 62.5-206.35 155.41-2.57 39.23 10.66 76.35 34.92 106.68-20.22 37.23-28.38 79.44-20.67 121.95C143.11 736.82 258.66 807.16 384.1 788.9l-10.72 82.08c-1.63 12.49 10.87 22.07 22.51 17.23L574.53 814c27.53 11.95 58.09 19.56 90.53 21.69 131.76 8.64 244.6-76.34 252.04-189.82 2.78-42.47-9.59-82.9-33.07-117.34 25.61-29.5 40.36-66.28 39.22-105.79z" fill="#00B8FF" p-id="4037"></path><path d="M239.81 261.76c-5.44 0-10.44-3.58-12.01-9.07-1.9-6.64 1.95-13.56 8.59-15.45 25.7-7.34 52.61-10.15 79.99-8.35 3.85 0.25 7.73 0.6 11.63 1.05 39.17-58.13 113.51-92.05 191.95-86.91 6.89 0.45 12.11 6.4 11.66 13.29-0.45 6.89-6.41 12.11-13.29 11.66-72.31-4.74-140.36 27.39-173.38 81.87a12.517 12.517 0 0 1-12.53 5.89c-5.9-0.87-11.84-1.51-17.67-1.89-24.51-1.61-48.56 0.9-71.49 7.45-1.15 0.33-2.3 0.48-3.44 0.48zM681.75 846.37c-6.42 0-12.87-0.21-19.34-0.64-46.76-3.07-91.65-17.29-129.82-41.12-5.86-3.66-7.64-11.37-3.98-17.22 3.66-5.86 11.37-7.64 17.22-3.98 34.68 21.66 75.55 34.58 118.21 37.38 5.93 0.39 11.84 0.58 17.72 0.58 54.3 0 105.79-16.48 146.59-47.21 44.65-33.63 71.09-80.34 74.45-131.54 1.82-27.74-3.18-54.96-14.86-80.89-2.83-6.29-0.03-13.7 6.27-16.53 6.3-2.83 13.7-0.03 16.53 6.27 13.38 29.71 19.1 60.93 17.01 92.8-3.84 58.57-33.8 111.79-84.36 149.87-45.14 34-101.93 52.24-161.64 52.24z" p-id="4038"></path><path d="M296.894887 508.009099a86.06 102.39 15.29 1 0 54.001448-197.531497 86.06 102.39 15.29 1 0-54.001448 197.531497Z" fill="#FFFFFF" p-id="4039"></path><path d="M290.610945 470.960924a56.25 77.45 15.29 1 0 40.847858-149.417076 56.25 77.45 15.29 1 0-40.847858 149.417076Z" p-id="4040"></path><path d="M505.340605 526.517377a93.3 111 15.29 1 0 58.542443-214.141968 93.3 111 15.29 1 0-58.542443 214.141968Z" fill="#FFFFFF" p-id="4041"></path><path d="M498.519353 486.368106a60.98 83.96 15.29 1 0 44.281294-161.976212 60.98 83.96 15.29 1 0-44.281294 161.976212Z" p-id="4042"></path><path d="M424.99 622.96c-34.63 0-76.56-6.94-122.24-29.09-6.21-3.01-8.81-10.49-5.79-16.7 3.01-6.21 10.49-8.81 16.7-5.79 51.61 25.02 103.95 32.53 155.57 22.3 38.71-7.67 62.53-23.01 62.76-23.16 5.77-3.77 13.52-2.16 17.29 3.6 3.78 5.76 2.2 13.49-3.56 17.28-1.09 0.72-27.31 17.79-70.41 26.55-14.11 2.87-31.09 5.01-50.33 5.01z" p-id="4043"></path><path d="M555.01 604.63c-4.62 0-9.06-2.57-11.23-7l-14.82-30.23c-3.04-6.2-0.48-13.69 5.72-16.73 6.2-3.04 13.69-0.48 16.73 5.72l14.82 30.23c3.04 6.2 0.48 13.69-5.72 16.73a12.43 12.43 0 0 1-5.49 1.28z" p-id="4044"></path></svg>