<?xml version="1.0" standalone="no"?><!DOCTYPE svg PUBLIC "-//W3C//DTD SVG 1.1//EN" "http://www.w3.org/Graphics/SVG/1.1/DTD/svg11.dtd"><svg t="1779509496930" class="icon" viewBox="0 0 1024 1024" version="1.1" xmlns="http://www.w3.org/2000/svg" p-id="4360" xmlns:xlink="http://www.w3.org/1999/xlink" width="200" height="200"><path d="M661.09 739.68H188.04c-18.5 0-31.79-17.8-26.54-35.54l161.79-546.32A27.684 27.684 0 0 1 349.83 138h473.05c18.5 0 31.79 17.8 26.54 35.54L687.63 719.86a27.684 27.684 0 0 1-26.54 19.82z" fill="#FFBE3B" p-id="4361"></path><path d="M541.58 877.67L800.13 604.4c7.6-8.03 1.91-21.26-9.15-21.26H603.01l-82.67 282.33c-3.72 12.7 12.15 21.82 21.25 12.2z" fill="#FFBE3B" p-id="4362"></path><path d="M541.57 890.03c-3.08 0-6.17-1.13-8.59-3.42-5.01-4.74-5.23-12.66-0.49-17.67l149.04-157.53c4.75-5.02 12.66-5.23 17.67-0.49 5.01 4.74 5.23 12.66 0.49 17.67L550.65 886.12c-2.46 2.6-5.77 3.91-9.08 3.91z" p-id="4363"></path><path d="M581.2032 398.742671a79.23 103.85 15.29 1 0 54.771466-200.348138 79.23 103.85 15.29 1 0-54.771466 200.348138Z" fill="#FFFFFF" p-id="4364"></path><path d="M624.162668 384.132142a41.18 78.55 15.29 1 0 41.428009-151.539204 41.18 78.55 15.29 1 0-41.428009 151.539204Z" p-id="4365"></path><path d="M394.783936 398.743635a79.23 103.85 15.29 1 0 54.771466-200.348138 79.23 103.85 15.29 1 0-54.771466 200.348138Z" fill="#FFFFFF" p-id="4366"></path><path d="M437.751578 384.123814a41.18 78.55 15.29 1 0 41.428008-151.539203 41.18 78.55 15.29 1 0-41.428008 151.539203Z" p-id="4367"></path><path d="M487.35 502.98c-1.05 0-2.11-0.03-3.17-0.1-13.54-0.89-26.08-7.45-35.31-18.47-4.43-5.29-3.74-13.18 1.56-17.61 5.29-4.43 13.18-3.74 17.61 1.56 4.81 5.74 11.12 9.14 17.78 9.57 11.24 0.74 22.08-6.95 27.58-19.59 2.76-6.33 10.12-9.23 16.45-6.47 6.33 2.76 9.23 10.12 6.47 16.45-9.29 21.34-28.28 34.66-48.97 34.66zM599.69 450.89c-0.77 0-1.55-0.07-2.33-0.22-6.78-1.28-11.25-7.82-9.97-14.6 9.16-48.55 56.12-80.6 104.67-71.44 6.78 1.28 11.25 7.82 9.97 14.6s-7.82 11.25-14.6 9.97c-35-6.61-68.86 16.5-75.47 51.51-1.13 6-6.38 10.18-12.27 10.18z" p-id="4368"></path></svg>