<?xml version="1.0" standalone="no"?><!DOCTYPE svg PUBLIC "-//W3C//DTD SVG 1.1//EN" "http://www.w3.org/Graphics/SVG/1.1/DTD/svg11.dtd"><svg t="1779518574707" class="icon" viewBox="0 0 1024 1024" version="1.1" xmlns="http://www.w3.org/2000/svg" p-id="1518" xmlns:xlink="http://www.w3.org/1999/xlink" width="200" height="200"><path d="M155.52 589.397333a348.689067 318.08 0 1 0 697.378133 0 348.689067 318.08 0 1 0-697.378133 0Z" fill="#F73448" p-id="1519"></path><path d="M741.905067 338.3296c41.1136 54.613333 59.784533 124.151467 59.784533 199.8592 0 175.675733-156.1088 318.08-348.689067 318.08-88.388267 0-169.088-30.0032-230.545066-79.445333 63.419733 79.197867 165.998933 130.653867 281.7536 130.653866 192.571733 0 348.680533-142.4128 348.680533-318.08 0-102.0416-33.911467-192.861867-110.984533-251.067733z" fill="#BF003B" p-id="1520"></path><path d="M165.947733 496.8192c72.6016 16.213333 174.6432 6.178133 279.739734-32.9216 104.96-39.031467 189.602133-98.338133 235.52-158.549333-48.64-21.563733-108.168533-33.757867-179.7376-34.0224C300.586667 272.213333 197.188267 366.933333 165.947733 496.8192z" fill="#A50020" p-id="1521"></path><path d="M848.7936 529.9968C827.648 409.821867 754.875733 314.564267 614.775467 282.368c0.452267 70.954667 39.6544 154.3168 109.858133 219.050667 40.192 37.034667 84.778667 62.634667 128.1024 76.151466a410.2656 410.2656 0 0 0-3.9424-47.573333z" fill="#890038" p-id="1522"></path><path d="M681.216 303.377067C633.437867 282.845867 574.7968 271.36 504.209067 271.36c-194.56 0-298.376533 87.534933-334.139734 210.005333 71.048533 18.577067 174.933333 10.0352 282.1376-28.5952C554.222933 415.957333 636.586667 360.106667 681.216 303.377067z" fill="#F8E06D" p-id="1523"></path><path d="M452.206933 452.727467C554.222933 415.957333 636.586667 360.106667 681.216 303.377067c-35.7632-15.36-77.610667-25.693867-126.0032-29.866667-12.552533 21.4016-32.3072 39.4752-54.1184 51.694933-38.186667 21.393067-82.295467 28.910933-124.859733 39.1168-36.3776 8.721067-72.277333 19.626667-106.7776 34.133334-27.2128 11.400533-53.8368 25.198933-75.733334 44.962133a154.308267 154.308267 0 0 0-17.152 18.176q-3.5584 9.728-6.5024 19.7888c71.048533 18.517333 174.9504 9.975467 282.1376-28.654933z" fill="#F9C054" p-id="1524"></path><path d="M230.007467 490.171733c64.0512 3.413333 142.208-8.610133 222.199466-37.444266C554.222933 415.957333 636.586667 360.106667 681.216 303.377067q-13.141333-5.6576-27.400533-10.376534a154.5472 154.5472 0 0 1-44.4672 40.106667c-36.974933 22.280533-80.093867 31.479467-121.9072 42.2144-70.826667 18.184533-140.373333 41.7536-207.232 71.424-18.6368 8.2688-38.4 18.261333-47.470934 36.522667a46.4384 46.4384 0 0 0-2.730666 6.903466z" fill="#F1891C" p-id="1525"></path><path d="M614.775467 282.368C615.253333 349.013333 654.0032 427.332267 723.473067 488.106667c40.260267 35.310933 85.060267 59.562667 128.4608 72.081066C843.0336 426.402133 771.413333 316.586667 614.775467 282.368z" fill="#FCA72B" p-id="1526"></path><path d="M745.745067 341.333333a114.756267 114.756267 0 0 0-1.706667 14.8736c-0.392533 7.560533-0.068267 15.249067 2.082133 22.510934 5.973333 20.2496 25.105067 34.244267 32.4864 54.033066 7.799467 20.881067 1.297067 43.9552-1.706666 66.039467a171.921067 171.921067 0 0 0-1.5616 27.409067 319.940267 319.940267 0 0 0 76.629333 34.0224C846.0544 471.799467 812.8 393.873067 745.745067 341.333333z" fill="#F98321" p-id="1527"></path><path d="M810.094933 544.605867a303.274667 303.274667 0 0 0 41.813334 15.581866c-4.053333-60.996267-21.154133-117.0176-53.4016-163.165866a120.7296 120.7296 0 0 0 5.060266 37.418666c3.575467 11.835733 8.951467 23.04 12.3136 34.986667a108.654933 108.654933 0 0 1 0.256 57.728 154.606933 154.606933 0 0 1-6.0416 17.450667z" fill="#F46300" p-id="1528"></path><path d="M317.232877 345.927176a15.8976 34.491733 68.91 1 0 64.362703-24.822595 15.8976 34.491733 68.91 1 0-64.362703 24.822595Z" fill="#FFFFFF" p-id="1529"></path><path d="M485.410133 300.7232a38.408533 10.922667 0 1 0 76.817067 0 38.408533 10.922667 0 1 0-76.817067 0Z" fill="#F1891C" p-id="1530"></path><path d="M601.514667 258.4064c18.269867-7.0912 60.091733-15.1808 81.211733-36.3008s45.294933-70.7328 45.294933-70.7328S618.001067 239.0272 537.6 259.8912l3.4816 15.470933s43.997867-10.564267 60.433067-16.955733z" fill="#46C149" p-id="1531"></path><path d="M674.181616 199.176462a4.881067 10.197333 56.95 1 0 17.094706-11.122654 4.881067 10.197333 56.95 1 0-17.094706 11.122654Z" fill="#E2FFA4" p-id="1532"></path><path d="M717.8752 170.666667l0.068267-0.128c-0.1792 0.085333-0.3584 0.170667-0.529067 0.264533zM601.514667 258.4064c18.269867-7.0912 60.091733-15.1808 81.211733-36.3008 7.552-7.543467 15.488-18.730667 22.570667-29.994667-6.0416 4.8128-12.9792 8.405333-19.857067 11.946667-19.259733 9.890133-42.555733 18.218667-61.815467 28.117333-15.36 7.8848-28.16 17.646933-37.888 31.402667 6.1952-1.826133 11.793067-3.618133 15.778134-5.1712z" fill="#13A380" p-id="1533"></path><path d="M532.8384 294.101333c4.1216-35.84 18.952533-172.893867 7.9104-197.1712 0 0-32.042667 88.354133-29.184 196.266667a10.683733 10.683733 0 0 0 11.665067 10.350933 10.6752 10.6752 0 0 0 9.608533-9.4464z" fill="#57CE51" p-id="1534"></path><path d="M531.348542 166.754824a4.539733 9.489067 8.59 1 0 2.834627-18.765245 4.539733 9.489067 8.59 1 0-2.834627 18.765245Z" fill="#E2FFA4" p-id="1535"></path><path d="M518.289067 248.5504c-1.9456 12.714667-2.807467 25.856 0.452266 38.2976 0.674133 2.56 1.578667 5.12 3.4816 6.9632 2.6368 2.500267 6.562133 2.884267 10.24 2.2016a10.8544 10.8544 0 0 0 0.401067-1.911467c2.500267-21.802667 8.96-80.9472 11.170133-129.4592-11.4688 27.144533-21.307733 54.8864-25.745066 83.908267z" fill="#27BA6A" p-id="1536"></path><path d="M517.870933 305.399467a8.712533 8.712533 0 0 1-7.227733-3.9168 10.24 10.24 0 0 1-1.066667-9.489067l55.2704-143.0528a8.994133 8.994133 0 0 1 8.302934-5.973333 8.533333 8.533333 0 0 1 4.846933 1.544533l20.241067 14.011733a10.1888 10.1888 0 0 1 3.080533 12.689067l-63.607467 129.0496a8.900267 8.900267 0 0 1-7.936 5.12z" fill="#543B34" p-id="1537"></path><path d="M573.149867 143.829333a7.611733 7.611733 0 0 1 4.360533 1.390934l20.241067 14.011733a9.284267 9.284267 0 0 1 2.798933 11.613867l-63.607467 129.041066a8.064 8.064 0 0 1-7.168 4.6592h-11.946666c-5.8112 0-9.745067-6.4256-7.5008-12.245333l55.3216-143.0528a8.132267 8.132267 0 0 1 7.5008-5.418667m0-1.706666a9.838933 9.838933 0 0 0-9.096534 6.510933l-55.2704 143.0528a11.093333 11.093333 0 0 0 1.160534 10.24 9.540267 9.540267 0 0 0 7.927466 4.266667h11.946667a9.762133 9.762133 0 0 0 8.704-5.614934l63.607467-129.041066a10.914133 10.914133 0 0 0-3.4048-13.6704l-20.241067-14.020267a9.386667 9.386667 0 0 0-5.333333-1.706667z" fill="#020202" p-id="1538"></path><path d="M596.4288 162.013867l-19.003733-9.045334a5.469867 5.469867 0 0 0-7.4496 2.9696l-12.142934 31.3856 15.9488-23.176533a5.4784 5.4784 0 0 1 4.573867-2.363733z" fill="#7C674C" p-id="1539"></path><path d="M601.514667 166.792533a41.557333 41.557333 0 0 0-10.658134 3.5584 42.5984 42.5984 0 0 0-21.589333 25.685334c-1.783467 5.973333-2.244267 12.4416-5.12 18.013866-4.266667 8.354133-13.047467 13.226667-19.8656 19.677867-9.275733 8.789333-14.958933 20.6336-20.053333 32.349867-5.248 12.091733-10.052267 25.864533-7.68 38.3488a7.944533 7.944533 0 0 0 1.288533 0.119466h11.946667a8.064 8.064 0 0 0 7.168-4.6592l63.607466-129.041066a9.386667 9.386667 0 0 0 0.955734-4.053334z" fill="#363235" p-id="1540"></path><path d="M518.084267 304.4864a10.615467 10.615467 0 0 0 12.0064 1.058133c21.213867-12.100267 90.453333-49.220267 127.5648-40.669866 30.549333 7.031467 71.0144 37.410133 93.090133 55.466666 2.696533 2.210133 6.4768-1.058133 4.462933-3.848533-16.5888-22.946133-49.877333-61.627733-92.757333-73.531733C612.744533 229.188267 544.426667 271.5136 518.826667 289.186133a9.5232 9.5232 0 0 0-0.759467 15.300267z" fill="#91E561" p-id="1541"></path><path d="M657.655467 264.874667c27.264 6.280533 62.429867 31.146667 85.333333 49.288533C721.92 289.032533 697.105067 267.093333 666.453333 256.5376c-11.639467-4.002133-24.1152-6.237867-36.283733-4.411733C616.106667 254.225067 603.306667 261.6064 592.213333 270.4128a123.460267 123.460267 0 0 0-10.965333 9.787733C607.573333 269.149867 637.44 260.206933 657.655467 264.874667z" fill="#36CC36" p-id="1542"></path><path d="M660.754473 253.238784a10.180267 4.2752 16.17 1 0 2.381186-8.212143 10.180267 4.2752 16.17 1 0-2.381186 8.212143Z" fill="#F4FFB3" p-id="1543"></path><path d="M481.757867 89.984s-7.458133 88.029867 3.549866 125.687467c6.997333 23.953067 31.214933 51.669333 47.914667 68.667733 7.296 7.424 3.84 19.626667-6.3744 22.485333a14.6944 14.6944 0 0 1-15.36-4.7104c-15.121067-18.568533-53.111467-67.959467-54.954667-96.955733-2.816-45.124267 25.224533-115.1744 25.224534-115.1744z" fill="#ACEF74" p-id="1544"></path><path d="M533.2224 284.3392c-16.699733-16.9984-40.96-44.714667-47.914667-68.667733-5.973333-20.292267-6.5024-55.202133-5.768533-83.089067a156.074667 156.074667 0 0 0-8.098133 30.609067c-2.56 17.518933-0.853333 35.5584 7.799466 51.2 3.9424 7.1168 9.2928 13.704533 12.074667 21.213866 4.061867 10.999467 2.312533 23.04 1.390933 34.688-0.1792 2.244267-0.315733 4.497067-0.426666 6.749867 7.432533 10.333867 14.4384 19.208533 19.182933 25.045333a14.6944 14.6944 0 0 0 15.36 4.7104c10.24-2.875733 13.696-15.035733 6.4-22.459733z" fill="#36CC3D" p-id="1545"></path><path d="M466.39314 182.629554a5.572267 15.445333 11.46 1 0 6.137474-30.27482 5.572267 15.445333 11.46 1 0-6.137474 30.27482Z" fill="#FEFFCA" p-id="1546"></path></svg>