<?xml version="1.0" standalone="no"?><!DOCTYPE svg PUBLIC "-//W3C//DTD SVG 1.1//EN" "http://www.w3.org/Graphics/SVG/1.1/DTD/svg11.dtd"><svg t="1779518555328" class="icon" viewBox="0 0 1024 1024" version="1.1" xmlns="http://www.w3.org/2000/svg" p-id="1665" xmlns:xlink="http://www.w3.org/1999/xlink" width="200" height="200"><path d="M518.954667 236.996267a0.853333 0.853333 0 0 1-0.64-0.2816 0.853333 0.853333 0 0 1-0.2048-0.6656C530.551467 128 576.1792 63.872 576.64 63.240533a0.853333 0.853333 0 0 1 0.503467-0.3328 104.2432 104.2432 0 0 1 23.304533-2.619733c28.629333 0 49.493333 11.639467 49.681067 11.758933a0.853333 0.853333 0 0 1 0 1.4848C629.504 84.906667 599.893333 110.830933 575.914667 169.813333a371.7888 371.7888 0 0 0-19.985067 66.491734 0.853333 0.853333 0 0 1-0.853333 0.699733z" fill="#683712" p-id="1666"></path><path d="M600.448 61.141333c28.731733 0 49.262933 11.648 49.262933 11.648-72.772267 40.106667-94.6176 163.3536-94.6176 163.3536h-36.138666c12.561067-109.064533 58.376533-172.373333 58.376533-172.373333a103.569067 103.569067 0 0 1 23.1168-2.56m0-1.706667a105.412267 105.412267 0 0 0-23.492267 2.6368 1.706667 1.706667 0 0 0-1.006933 0.6656c-0.110933 0.162133-11.707733 16.324267-24.6528 45.6192-11.946667 26.990933-27.528533 71.04-34.039467 127.5904a1.706667 1.706667 0 0 0 0.426667 1.3312 1.706667 1.706667 0 0 0 1.271467 0.571734h36.138666a1.706667 1.706667 0 0 0 1.706667-1.408 369.629867 369.629867 0 0 1 19.9424-66.346667c8.405333-20.667733 18.133333-38.801067 28.919467-53.896533 13.431467-18.773333 28.535467-32.896 44.9024-41.915734a1.706667 1.706667 0 0 0 0-2.978133c-0.853333-0.4864-21.256533-11.869867-50.107734-11.869867z" fill="#260E00" p-id="1667"></path><path d="M555.093333 236.142933S576.938667 112.904533 649.710933 72.789333a78.1312 78.1312 0 0 0-10.299733-4.573866c-6.4256 1.408-12.7488 3.319467-18.4832 6.5024-7.074133 3.925333-13.2352 9.992533-15.906133 17.6384-2.0224 5.802667-1.979733 12.219733-4.445867 17.851733-3.3536 7.68-10.845867 12.689067-18.440533 16.213333s-15.752533 5.973333-22.690134 10.658134-12.654933 12.356267-12.040533 20.701866c0.256 3.413333 1.5616 6.7328 1.860267 10.171734 0.733867 8.533333-4.8896 16.443733-11.511467 21.9136-4.087467 3.413333-8.635733 6.178133-13.0048 9.198933-2.312533 11.6992-4.266667 24.072533-5.794133 37.102933z" fill="#60260F" p-id="1668"></path><path d="M606.225067 68.215467h-16.341334A14.677333 14.677333 0 0 0 576.529067 76.8l-11.733334 25.770667 13.038934-21.418667a22.528 22.528 0 0 1 15.061333-10.4192z" fill="#99682C" p-id="1669"></path><path d="M793.8816 503.278933c0 152.234667-129.4336 397.7216-289.092267 397.7216S215.697067 655.5136 215.697067 503.278933s129.425067-275.626667 289.092266-275.626666 289.092267 123.383467 289.092267 275.626666z" fill="#F6303E" p-id="1670"></path><path d="M690.491733 292.036267c36.9664 46.3104 58.922667 104.106667 58.922667 166.775466 0 152.234667-129.4336 397.7216-289.092267 397.7216-45.064533 0-87.722667-19.5584-125.738666-51.054933 47.786667 56.533333 106.5728 95.522133 170.205866 95.522133 159.658667 0 289.092267-245.486933 289.092267-397.7216 0-84.821333-40.192-160.674133-103.389867-211.242666z" fill="#DA0630" p-id="1671"></path><path d="M478.9504 369.2288a20.855467 9.762133 90 1 0 19.524267 0 20.855467 9.762133 90 1 0-19.524267 0Z" fill="#DB0630" p-id="1672"></path><path d="M482.235733 369.2288a13.841067 6.4768 90 1 0 12.9536 0 13.841067 6.4768 90 1 0-12.9536 0Z" fill="#FFD800" p-id="1673"></path><path d="M387.976533 402.9184a14.0288 6.570667 90 1 0 13.141334 0 14.0288 6.570667 90 1 0-13.141334 0Z" fill="#DB0630" p-id="1674"></path><path d="M390.186667 402.9184a9.309867 4.360533 90 1 0 8.721066 0 9.309867 4.360533 90 1 0-8.721066 0Z" fill="#FFFFFF" p-id="1675"></path><path d="M670.293333 439.0144a20.855467 9.762133 90 1 0 19.524267 0 20.855467 9.762133 90 1 0-19.524267 0Z" fill="#DB0630" p-id="1676"></path><path d="M673.578667 439.0144a13.841067 6.4768 90 1 0 12.9536 0 13.841067 6.4768 90 1 0-12.9536 0Z" fill="#FFD800" p-id="1677"></path><path d="M620.561067 329.309867a20.855467 9.762133 90 1 0 19.524266 0 20.855467 9.762133 90 1 0-19.524266 0Z" fill="#DB0630" p-id="1678"></path><path d="M623.8464 329.309867a13.841067 6.4768 90 1 0 12.9536 0 13.841067 6.4768 90 1 0-12.9536 0Z" fill="#FFD800" p-id="1679"></path><path d="M287.5136 592.5632a20.855467 9.762133 90 1 0 19.524267 0 20.855467 9.762133 90 1 0-19.524267 0Z" fill="#DB0630" p-id="1680"></path><path d="M290.798933 592.5632a13.841067 6.4768 90 1 0 12.9536 0 13.841067 6.4768 90 1 0-12.9536 0Z" fill="#FFD800" p-id="1681"></path><path d="M382.293333 611.7376a15.837867 7.415467 90 1 0 14.830934 0 15.837867 7.415467 90 1 0-14.830934 0Z" fill="#DB0630" p-id="1682"></path><path d="M384.7936 611.7376a10.504533 4.9152 90 1 0 9.8304 0 10.504533 4.9152 90 1 0-9.8304 0Z" fill="#FFD800" p-id="1683"></path><path d="M608.785067 723.771733a17.518933 8.200533 90 1 0 16.401066 0 17.518933 8.200533 90 1 0-16.401066 0Z" fill="#DB0630" p-id="1684"></path><path d="M611.541333 723.771733a11.6224 5.444267 90 1 0 10.888534 0 11.6224 5.444267 90 1 0-10.888534 0Z" fill="#FFFFFF" p-id="1685"></path><path d="M356.3008 520.2688a17.348267 8.123733 90 1 0 16.247467 0 17.348267 8.123733 90 1 0-16.247467 0Z" fill="#DB0630" p-id="1686"></path><path d="M359.04 520.2688a11.511467 5.384533 90 1 0 10.769067 0 11.511467 5.384533 90 1 0-10.769067 0Z" fill="#FFD800" p-id="1687"></path><path d="M625.117867 583.978667a17.348267 8.123733 90 1 0 16.247466 0 17.348267 8.123733 90 1 0-16.247466 0Z" fill="#DB0630" p-id="1688"></path><path d="M627.857067 583.978667a11.511467 5.384533 90 1 0 10.769066 0 11.511467 5.384533 90 1 0-10.769066 0Z" fill="#FFD800" p-id="1689"></path><path d="M464.401067 737.6128a20.855467 9.762133 90 1 0 19.524266 0 20.855467 9.762133 90 1 0-19.524266 0Z" fill="#DB0630" p-id="1690"></path><path d="M467.6864 737.6128a13.841067 6.4768 90 1 0 12.9536 0 13.841067 6.4768 90 1 0-12.9536 0Z" fill="#FFD800" p-id="1691"></path><path d="M536.96 681.053867a20.855467 9.762133 90 1 0 19.524267 0 20.855467 9.762133 90 1 0-19.524267 0Z" fill="#DB0630" p-id="1692"></path><path d="M540.245333 681.053867a13.841067 6.4768 90 1 0 12.9536 0 13.841067 6.4768 90 1 0-12.9536 0Z" fill="#FFD800" p-id="1693"></path><path d="M281.0368 478.481067a20.855467 9.762133 90 1 0 19.524267 0 20.855467 9.762133 90 1 0-19.524267 0Z" fill="#DB0630" p-id="1694"></path><path d="M284.322133 478.481067a13.841067 6.4768 90 1 0 12.9536 0 13.841067 6.4768 90 1 0-12.9536 0Z" fill="#FFD800" p-id="1695"></path><path d="M660.522667 670.976a20.855467 9.762133 90 1 0 19.524266 0 20.855467 9.762133 90 1 0-19.524266 0Z" fill="#DB0630" p-id="1696"></path><path d="M663.808 670.976a13.841067 6.4768 90 1 0 12.9536 0 13.841067 6.4768 90 1 0-12.9536 0Z" fill="#FFD800" p-id="1697"></path><path d="M333.064533 694.894933a20.855467 9.762133 90 1 0 19.524267 0 20.855467 9.762133 90 1 0-19.524267 0Z" fill="#DB0630" p-id="1698"></path><path d="M336.349867 694.894933a13.841067 6.4768 90 1 0 12.9536 0 13.841067 6.4768 90 1 0-12.9536 0Z" fill="#FFFFFF" p-id="1699"></path><path d="M702.779733 529.220267a20.855467 9.762133 90 1 0 19.524267 0 20.855467 9.762133 90 1 0-19.524267 0Z" fill="#DB0630" p-id="1700"></path><path d="M706.065067 529.220267a13.841067 6.4768 90 1 0 12.9536 0 13.841067 6.4768 90 1 0-12.9536 0Z" fill="#FFFFFF" p-id="1701"></path><path d="M609.928533 487.5008a16.221867 7.594667 90 1 0 15.189334 0 16.221867 7.594667 90 1 0-15.189334 0Z" fill="#DB0630" p-id="1702"></path><path d="M612.488533 487.5008a10.760533 5.034667 90 1 0 10.069334 0 10.760533 5.034667 90 1 0-10.069334 0Z" fill="#FFFFFF" p-id="1703"></path><path d="M326.446665 371.862212a33.1008 48 53.3 1 0 76.970462-57.372014 33.1008 48 53.3 1 0-76.970462 57.372014Z" fill="#FFA466" p-id="1704"></path><path d="M653.201067 311.304533a201.582933 201.582933 0 0 0 35.114666-21.009066c-49.92-39.159467-113.8432-62.6688-183.5264-62.6688a299.690667 299.690667 0 0 0-121.088 25.2928c4.983467 9.693867 10.461867 17.7408 15.786667 23.2448 75.118933 77.550933 195.9424 62.3104 253.713067 35.140266z" fill="#DA0630" p-id="1705"></path><path d="M546.645333 319.419733c-42.0096 0-101.742933-9.2928-147.746133-53.563733-13.738667-13.226667-26.5728-39.5264-31.931733-65.442133-6.7072-32.469333-1.5616-61.1584 14.506666-80.785067a0.853333 0.853333 0 0 1 0.657067-0.315733h0.1024a0.853333 0.853333 0 0 1 0.674133 0.477866c0.324267 0.682667 32.017067 66.5088 54.135467 83.328-1.450667-12.356267-7.978667-77.1072 13.124267-88.832a0.853333 0.853333 0 0 1 0.418133-0.110933 0.853333 0.853333 0 0 1 0.6656 0.324267c0.145067 0.1792 14.848 18.56 34.039467 38.946133 25.250133 26.820267 46.805333 44.9792 62.3616 52.522667a272.0256 272.0256 0 0 0 42.5984-5.794134c21.512533-4.676267 51.037867-14.1312 69.486933-32.571733a0.853333 0.853333 0 0 1 0.597333-0.256h0.059734a0.853333 0.853333 0 0 1 0.622933 0.341333 72.789333 72.789333 0 0 1 7.586133 12.9792c4.266667 9.454933 5.589333 18.107733 3.771734 25.130667 9.5744-0.597333 73.386667-5.213867 83.524266-22.536533a0.853333 0.853333 0 0 1 0.733867-0.418134 0.853333 0.853333 0 0 1 0.298667 0.0512 0.853333 0.853333 0 0 1 0.5376 0.964267c0 0.187733-3.8656 19.2768-18.542934 42.845867-13.533867 21.7344-39.330133 51.882667-85.333333 72.064-29.525333 12.936533-69.495467 20.650667-106.948267 20.650666z" fill="#5AC44E" p-id="1706"></path><path d="M450.56 115.037867s58.5728 73.386667 96.887467 91.8016c0 0 76.859733-2.619733 112.861866-38.6304 0 0 16.3328 21.333333 10.888534 38.519466 0 0 74.103467-3.7632 85.410133-23.04 0 0-14.685867 75.392-103.415467 114.295467-26.026667 11.409067-64.853333 20.565333-106.555733 20.565333-50.824533 0-105.8816-13.602133-147.157333-53.3248-25.122133-24.183467-53.5808-100.795733-17.373867-145.066666 0 0 33.390933 69.7088 55.995733 84.7872 0 0-10.154667-77.354667 12.458667-89.915734m0-1.706666a1.706667 1.706667 0 0 0-0.853333 0.213333c-9.949867 5.5296-15.197867 22.7328-15.581867 51.140267a321.493333 321.493333 0 0 0 1.800533 36.488533c-21.845333-18.474667-51.985067-81.066667-52.3008-81.7408a1.706667 1.706667 0 0 0-1.339733-0.955733h-0.2048a1.706667 1.706667 0 0 0-1.314133 0.631466C372.096 129.706667 366.557867 142.7712 364.373333 157.866667c-1.937067 13.184-1.3312 27.554133 1.800534 42.717866 5.393067 26.077867 18.321067 52.548267 32.170666 65.885867 46.208 44.4672 106.171733 53.802667 148.343467 53.802667 37.546667 0 77.653333-7.739733 107.246933-20.7104a199.586133 199.586133 0 0 0 54.050134-34.568534 178.005333 178.005333 0 0 0 31.6928-37.828266c14.754133-23.7056 18.500267-42.350933 18.653866-43.136a1.706667 1.706667 0 0 0-1.066666-1.92 1.655467 1.655467 0 0 0-0.605867-0.110934 1.706667 1.706667 0 0 0-1.476267 0.853334c-3.037867 5.179733-13.44 12.4928-45.7472 17.92-15.5392 2.6112-30.353067 3.754667-35.933866 4.130133 1.4848-7.04 0.110933-15.291733-4.096-24.558933a74.5216 74.5216 0 0 0-7.68-13.149867 1.706667 1.706667 0 0 0-1.237334-0.6656h-0.119466a1.706667 1.706667 0 0 0-1.2032 0.503467c-18.295467 18.295467-47.6416 27.682133-69.034667 32.341333a272.785067 272.785067 0 0 1-42.2912 5.742933c-19.498667-9.531733-44.373333-33.646933-61.9264-52.258133-19.165867-20.360533-33.8432-38.698667-33.988267-38.8864a1.706667 1.706667 0 0 0-1.3312-0.64z" fill="#111E00" p-id="1707"></path><path d="M382.114133 120.1664c-36.206933 44.279467-7.748267 120.891733 17.373867 145.066667 75.093333 72.2944 195.9424 58.0864 253.713067 32.759466 88.746667-38.903467 103.415467-114.295467 103.415466-114.295466-9.463467 16.119467-68.266667 21.7344-85.410133 23.04-15.530667 13.550933-25.9328 26.666667-44.509867 34.670933-17.578667 7.569067-36.923733 9.8816-56.004266 11.349333-34.986667 2.679467-72.260267 2.261333-102.1696-16.042666-14.088533-8.635733-25.6-20.846933-34.423467-34.8928-22.340267-19.7632-51.985067-81.655467-51.985067-81.655467z" fill="#16A37B" p-id="1708"></path><path d="M605.884145 232.022691a17.092267 24.6272 56.91 1 0 41.266026-26.890723 17.092267 24.6272 56.91 1 0-41.266026 26.890723Z" fill="#CFFF9C" p-id="1709"></path><path d="M547.456 206.839467C509.141333 188.416 450.56 115.037867 450.56 115.037867c-22.613333 12.561067-12.458667 89.915733-12.458667 89.915733-22.6048-15.0784-55.995733-84.7872-55.995733-84.7872-36.206933 44.279467-7.748267 120.891733 17.373867 145.066667a175.607467 175.607467 0 0 0 38.101333 27.810133c31.2064-5.12-43.6736-58.504533 75.093333-41.122133 34.158933 5.000533 34.781867-45.0816 34.781867-45.0816z" fill="#148466" p-id="1710"></path><path d="M402.976023 209.457494a13.2608 9.207467 52.55 1 0 14.619326-11.197548 13.2608 9.207467 52.55 1 0-14.619326 11.197548Z" fill="#CFFF9C" p-id="1711"></path><path d="M672.3072 199.1936l-1.1008 7.534933a24.866133 24.866133 0 0 0 1.1008-7.534933z" fill="#5AC44E" p-id="1712"></path></svg>