<?xml version="1.0" standalone="no"?><!DOCTYPE svg PUBLIC "-//W3C//DTD SVG 1.1//EN" "http://www.w3.org/Graphics/SVG/1.1/DTD/svg11.dtd"><svg t="1779524677049" class="icon" viewBox="0 0 1024 1024" version="1.1" xmlns="http://www.w3.org/2000/svg" p-id="1488" xmlns:xlink="http://www.w3.org/1999/xlink" width="200" height="200"><path d="M59.438 753.669a342 342 0 0 1 467.18 125.18 342 342 0 0 1-467.18-125.18z" fill="#66AD45" p-id="1489"></path><path d="M758 281.71l-208.65-147a39.37 39.37 0 0 0-45.35 0l-208.66 147A329.06 329.06 0 0 0 179.76 427.4l-5.82 14.4a329 329 0 0 0 39.55 317.68c40.18 54.89 99.15 100.84 164.75 120.52 33 9.88 64.1 10.06 97.82 5.18 42.72-6.18 84.69 0.38 127.33 3.68 90.63 7 185.23-59.4 236.44-129.35a329 329 0 0 0 39.56-317.71l-5.83-14.4A329 329 0 0 0 758 281.71z" fill="#FF8899" p-id="1490"></path><path d="M880.08 441.65l-5.82-14.4a329.06 329.06 0 0 0-115.58-145.68L550 134.6a39.36 39.36 0 0 0-24.37-7.15A41.67 41.67 0 0 1 540.45 141l150.33 225.1a349 349 0 0 1 58.72 188.33l0.26 16.47a349 349 0 0 1-160.51 299.26c-8.12 5.21-16.71 10.2-25.65 14.91 13.45 1.19 26.94 2.57 40.48 3.62 90.63 7 185.24-59.4 236.45-129.36a329 329 0 0 0 39.55-317.68z" fill="#F47D94" p-id="1491"></path><path d="M512.673 882.603a352.26 352.26 0 0 1 481.205-128.93 352.26 352.26 0 0 1-481.205 128.93z" fill="#66AD45" p-id="1492"></path><path d="M254.24 689.13m-7.85 0a7.85 7.85 0 1 0 15.7 0 7.85 7.85 0 1 0-15.7 0Z" fill="#FFFFFF" p-id="1493"></path><path d="M226.68 639.1m-8.65 0a8.65 8.65 0 1 0 17.3 0 8.65 8.65 0 1 0-17.3 0Z" fill="#FFFFFF" p-id="1494"></path><path d="M223.34 589.35m-2.33 0a2.33 2.33 0 1 0 4.66 0 2.33 2.33 0 1 0-4.66 0Z" fill="#FFFFFF" p-id="1495"></path><path d="M302.69 606.42m-8.98 0a8.98 8.98 0 1 0 17.96 0 8.98 8.98 0 1 0-17.96 0Z" fill="#FFFFFF" p-id="1496"></path><path d="M282.15 549.65m-3.4 0a3.4 3.4 0 1 0 6.8 0 3.4 3.4 0 1 0-6.8 0Z" fill="#FFFFFF" p-id="1497"></path><path d="M244.31 503.01m-2.72 0a2.72 2.72 0 1 0 5.44 0 2.72 2.72 0 1 0-5.44 0Z" fill="#FFFFFF" p-id="1498"></path><path d="M297.5 464.07m-11.67 0a11.67 11.67 0 1 0 23.34 0 11.67 11.67 0 1 0-23.34 0Z" fill="#FFFFFF" p-id="1499"></path><path d="M264.45 391.96m-6.35 0a6.35 6.35 0 1 0 12.7 0 6.35 6.35 0 1 0-12.7 0Z" fill="#FFFFFF" p-id="1500"></path><path d="M334.6 355.06m-14.39 0a14.39 14.39 0 1 0 28.78 0 14.39 14.39 0 1 0-28.78 0Z" fill="#FFFFFF" p-id="1501"></path><path d="M391.65 325.99m-3.93 0a3.93 3.93 0 1 0 7.86 0 3.93 3.93 0 1 0-7.86 0Z" fill="#FFFFFF" p-id="1502"></path></svg>