<?xml version="1.0" standalone="no"?><!DOCTYPE svg PUBLIC "-//W3C//DTD SVG 1.1//EN" "http://www.w3.org/Graphics/SVG/1.1/DTD/svg11.dtd"><svg t="1779518550076" class="icon" viewBox="0 0 1024 1024" version="1.1" xmlns="http://www.w3.org/2000/svg" p-id="1490" xmlns:xlink="http://www.w3.org/1999/xlink" width="200" height="200"><path d="M766.779733 446.293333c-49.988267-175.522133-294.4-132.189867-294.4-132.189866S227.9936 270.7712 178.005333 446.293333s16.605867 294.596267 52.215467 339.933867c37.768533 48.093867 151.04 101.0944 242.167467 44.433067 91.093333 56.661333 204.407467 3.6608 242.176-44.433067 35.6096-45.3376 102.203733-164.411733 52.215466-339.933867z" fill="#F91C56" p-id="1491"></path><path d="M766.779733 446.293333C756.906667 411.562667 739.3792 385.408 717.653333 365.781333A181.546667 181.546667 0 0 1 734.011733 405.333333c49.988267 175.522133-16.605867 294.596267-52.1984 339.933867-37.768533 48.093867-151.082667 101.085867-242.176 44.433067-80.776533 50.235733-179.012267 14.2592-226.568533-28.074667a279.278933 279.278933 0 0 0 17.169067 24.6016c37.768533 48.093867 151.04 101.0944 242.176 44.433067 91.0848 56.661333 204.398933 3.6608 242.167466-44.433067 35.592533-45.3376 102.186667-164.411733 52.1984-339.933867z" fill="#D8006C" p-id="1492"></path><path d="M238.66769 463.600753a30.72 44.544 39.16 1 0 56.258015-69.077547 30.72 44.544 39.16 1 0-56.258015 69.077547Z" fill="#FFE780" opacity=".8" p-id="1493"></path><path d="M412.393358 355.632184a16.247467 52.138667 64.21 1 0 93.890761-45.368352 16.247467 52.138667 64.21 1 0-93.890761 45.368352Z" fill="#E07A00" p-id="1494"></path><path d="M456.4224 328.686933c20.616533-9.966933 40.106667-14.276267 49.211733-11.562666 1.28-2.653867 1.5616-5.009067 0.648534-6.8864-3.899733-8.081067-28.091733-4.471467-54.016 8.055466s-43.784533 29.2352-39.876267 37.316267c0.802133 1.655467 2.466133 2.816 4.804267 3.515733 4.206933-8.7552 19.328-20.821333 39.227733-30.4384z" fill="#DB3E00" p-id="1495"></path><path d="M438.9632 350.660267a31.325867 31.325867 0 0 1-6.331733-0.5632 0.853333 0.853333 0 0 1-0.597334-0.494934c-30.190933-70.434133-59.374933-89.4976-85.128533-106.308266l-0.187733-0.128a7.492267 7.492267 0 0 1-0.110934-12.4672c19.950933-13.7472 38.8096-16.631467 51.114667-16.631467 1.390933 0 2.773333 0 4.1216 0.110933 7.381333 0.401067 12.680533 2.56 15.735467 6.306134a316.586667 316.586667 0 0 1 46.805333 78.301866C472.746667 319.232 475.306667 332.637867 475.306667 332.8a0.7936 0.7936 0 0 1-0.059734 0.503467c-0.119467 0.264533-3.106133 6.613333-19.080533 13.713066a42.666667 42.666667 0 0 1-17.2032 3.669334z" fill="#60260F" p-id="1496"></path><path d="M397.7216 214.920533c1.467733 0 2.824533 0 4.078933 0.110934 5.5552 0.298667 11.6224 1.664 15.121067 5.973333C464.657067 280.055467 474.453333 332.928 474.453333 332.928s-2.7904 6.229333-18.653866 13.2864a41.6512 41.6512 0 0 1-16.853334 3.592533 29.943467 29.943467 0 0 1-6.144-0.546133c-30.3616-70.826667-59.255467-89.6-85.640533-106.811733a6.647467 6.647467 0 0 1-0.085333-11.050667c19.8912-13.704533 38.673067-16.477867 50.628266-16.477867m0-1.706666c-12.424533 0-31.4624 2.909867-51.592533 16.776533a8.3968 8.3968 0 0 0-3.652267 7.031467 8.302933 8.302933 0 0 0 3.771734 6.826666l0.187733 0.119467c13.166933 8.6016 26.769067 17.4848 40.9088 33.015467 16.085333 17.664 30.446933 41.514667 43.912533 72.917333a1.706667 1.706667 0 0 0 1.1776 0.989867 31.4624 31.4624 0 0 0 6.528 0.5888 43.52 43.52 0 0 0 17.5872-3.712c16.213333-7.227733 19.370667-13.866667 19.490134-14.114134a1.706667 1.706667 0 0 0 0.128-1.015466c-0.1024-0.546133-2.56-13.653333-10.973867-34.133334a317.568 317.568 0 0 0-46.933333-78.506666c-3.217067-3.976533-8.721067-6.203733-16.349867-6.621867-1.365333-0.0768-2.773333-0.110933-4.1728-0.110933z" fill="#281800" p-id="1497"></path><path d="M354.632846 239.101918a13.636267 31.530667 79.48 1 0 62.00135-11.513659 13.636267 31.530667 79.48 1 0-62.00135 11.513659Z" fill="#934C25" p-id="1498"></path><path d="M404.1984 227.746133c0.853333 4.6592-5.4016 12.8-16.213333 14.762667s-21.0176-0.904533-21.879467-5.563733 7.168-10.0608 17.92-12.066134 19.3024-1.792 20.1728 2.8672z" fill="#934C25" p-id="1499"></path><path d="M381.090133 243.575467a31.044267 31.044267 0 0 1-7.8336-0.938667c-4.343467-1.143467-7.0912-3.182933-7.543466-5.614933-0.9216-4.9664 7.1168-10.478933 18.286933-12.561067 5.802667-1.0752 10.478933-1.4336 13.9008-1.066667 4.010667 0.426667 6.263467 1.8688 6.715733 4.266667 0.989867 5.341867-6.161067 13.3376-16.520533 15.2576a38.2976 38.2976 0 0 1-7.005867 0.657067zM395.093333 224.1024a61.687467 61.687467 0 0 0-10.9056 1.194667c-10.530133 1.962667-18.432 7.150933-17.604266 11.5712 0.384 2.090667 2.901333 3.8912 6.912 4.949333a34.466133 34.466133 0 0 0 14.506666 0.273067c10.743467-1.9968 16.64-9.9072 15.829334-14.267734-0.366933-1.988267-2.372267-3.2-5.973334-3.584a26.965333 26.965333 0 0 0-2.7648-0.136533z" fill="#3F2700" p-id="1500"></path><path d="M395.733333 232.106667c0.4352 2.372267-3.515733 5.12-8.9856 6.1184s-10.666667-0.452267-11.093333-2.824534 3.694933-4.053333 9.1648-5.0688 10.4704-0.5888 10.914133 1.774934z" fill="#934C25" p-id="1501"></path><path d="M383.274667 238.976c-4.181333 0-7.68-1.3824-8.055467-3.498667-0.5632-3.037867 4.855467-4.701867 9.506133-5.563733 5.307733-0.989867 10.897067-0.7168 11.426134 2.116267 0.4864 2.645333-3.6096 5.5552-9.326934 6.613333a18.9696 18.9696 0 0 1-3.549866 0.3328z m6.638933-8.7296a27.886933 27.886933 0 0 0-5.034667 0.503467c-5.973333 1.1008-9.156267 2.773333-8.823466 4.573866 0.366933 1.954133 5.179733 3.490133 10.615466 2.4832 5.597867-1.041067 8.9856-3.746133 8.635734-5.623466-0.213333-1.245867-2.338133-1.937067-5.393067-1.937067z" fill="#3F2700" p-id="1502"></path><path d="M627.268267 350.114133c-21.333333 0-57.173333-8.840533-83.541334-16.256-28.526933-8.029867-52.343467-16.162133-52.5824-16.213333a0.853333 0.853333 0 0 1-0.529066-1.066667 336.145067 336.145067 0 0 1 34.048-69.495466c13.166933-20.232533 27.4432-36.309333 42.487466-47.880534 18.833067-14.506667 38.869333-21.8368 59.5456-21.8368a92.484267 92.484267 0 0 1 14.6944 1.2032c51.626667 8.388267 86.749867 37.3248 107.118934 60.117334 22.0672 24.686933 32.068267 47.7184 32.162133 47.9488a0.853333 0.853333 0 0 1-0.068267 0.7936 0.853333 0.853333 0 0 1-0.699733 0.392533c-0.128 0-13.226667 0.546133-32.861867 19.396267-20.104533 19.310933-79.325867 42.897067-119.773866 42.897066z" fill="#81ED3B" p-id="1503"></path><path d="M626.696533 178.218667a90.453333 90.453333 0 0 1 14.557867 1.194666c99.473067 16.162133 138.632533 107.52 138.632533 107.52s-13.2608 0.256-33.4336 19.626667c-19.626667 18.858667-78.148267 42.666667-119.185066 42.666667s-135.842133-32.426667-135.842134-32.426667 45.457067-138.5728 135.2704-138.589867m0-1.706666c-20.872533 0-41.079467 7.415467-60.066133 22.016-15.095467 11.613867-29.457067 27.784533-42.666667 48.059733a336.9216 336.9216 0 0 0-34.133333 69.691733 1.706667 1.706667 0 0 0 1.066667 2.141867c3.882667 1.3312 95.573333 32.546133 136.3968 32.546133 19.2256 0 43.4432-5.12 68.215466-14.3616 22.7584-8.533333 42.257067-19.268267 52.1472-28.7744 10.112-9.7024 18.363733-14.404267 23.509334-16.631466 5.5552-2.4064 8.763733-2.56 8.789333-2.56a1.706667 1.706667 0 0 0 1.527467-2.3808c-0.093867-0.2304-10.154667-23.389867-32.315734-48.1792a195.5072 195.5072 0 0 0-43.3664-36.5312 176.119467 176.119467 0 0 0-64.247466-23.850667 92.100267 92.100267 0 0 0-14.813867-1.220267z" fill="#281800" p-id="1504"></path><path d="M576.162133 341.4016c19.293867 4.5312 37.9648 7.8592 51.106134 7.8592 41.0368 0 99.541333-23.799467 119.185066-42.666667 20.1728-19.3792 33.4336-19.626667 33.4336-19.626666s-19.566933-45.653333-66.167466-78.1312c-41.378133 15.121067-100.224 50.423467-137.557334 132.565333z" fill="#0EAA46" p-id="1505"></path><path d="M651.204267 260.309333c0.6656-1.339733 1.3056-2.397867 2.013866-3.541333s1.416533-2.2016 2.184534-3.259733A68.189867 68.189867 0 0 1 671.8208 237.226667a65.211733 65.211733 0 0 1 6.570667-3.968 62.677333 62.677333 0 0 1 6.9888-3.072 60.433067 60.433067 0 0 1 14.728533-3.2768 56.9344 56.9344 0 0 0-20.5824 8.2944 60.586667 60.586667 0 0 0-5.879467 4.4032 63.453867 63.453867 0 0 0-9.898666 10.692266 65.390933 65.390933 0 0 0-3.9424 6.075734c-0.597333 1.041067-1.160533 2.0992-1.706667 3.165866s-1.041067 2.2016-1.390933 3.1488v0.042667a3.003733 3.003733 0 0 1-5.623467-2.0992 2.944 2.944 0 0 1 0.119467-0.324267z" fill="#108703" p-id="1506"></path><path d="M579.874133 273.809067c2.449067 2.133333 5.230933 4.266667 7.978667 6.263466s5.6064 3.959467 8.533333 5.802667c5.802667 3.703467 11.776 7.185067 17.92 10.3168s12.450133 6.0672 18.909867 8.533333c3.2 1.348267 6.493867 2.4576 9.762133 3.643734 1.621333 0.622933 3.293867 1.092267 4.949334 1.629866l4.974933 1.570134-5.12-1.211734c-1.706667-0.418133-3.413333-0.768-5.0688-1.271466-3.3536-0.9472-6.7328-1.826133-10.043733-2.944-6.6816-2.056533-13.2096-4.5824-19.677867-7.278934s-12.8-5.8112-18.952533-9.1648c-3.106133-1.706667-6.135467-3.464533-9.147734-5.316266s-5.922133-3.780267-8.891733-6.016a2.9952 2.9952 0 1 1 3.601067-4.795734l0.162133 0.136534z" fill="#348902" p-id="1507"></path><path d="M665.7792 260.701867c0.247467 0.426667 0.7168 1.0752 1.1264 1.629866s0.904533 1.143467 1.3568 1.706667l1.4592 1.706667 1.536 1.629866c1.015467 1.092267 2.141867 2.0992 3.217067 3.157334s2.2528 2.0224 3.413333 2.9952A127.4368 127.4368 0 0 0 692.795733 284.16c5.1968 3.3024 10.6752 6.161067 16.213334 8.942933 2.7904 1.3312 5.6064 2.6112 8.4224 3.908267l8.593066 3.575467-8.866133-2.875734c-2.9184-1.0752-5.845333-2.1248-8.7552-3.234133-5.768533-2.346667-11.528533-4.7872-17.066667-7.68a129.646933 129.646933 0 0 1-16.213333-9.728c-1.288533-0.9216-2.56-1.8944-3.822933-2.8416s-2.491733-1.9968-3.677867-3.080533l-1.800533-1.6128-1.706667-1.706667c-0.5632-0.597333-1.1264-1.186133-1.706667-1.809067a26.564267 26.564267 0 0 1-1.706666-2.0736 3.003733 3.003733 0 1 1 4.881066-3.490133c0.0512 0.068267 0.093867 0.145067 0.145067 0.221867z" fill="#108703" p-id="1508"></path><path d="M557.7984 277.248c1.604267-3.3024 3.3024-6.314667 5.12-9.386667s3.720533-5.973333 5.717333-8.866133a138.103467 138.103467 0 0 1 13.2352-16.375467q3.643733-3.8144 7.611734-7.2704a95.4112 95.4112 0 0 1 8.3456-6.3744 77.44 77.44 0 0 1 9.1136-5.1712 66.107733 66.107733 0 0 1 9.7792-3.575466 64.2816 64.2816 0 0 0-9.437867 4.266666 74.1632 74.1632 0 0 0-8.533333 5.717334 94.062933 94.062933 0 0 0-7.68 6.826666c-2.414933 2.432-4.7104 4.974933-6.894934 7.6032a135.790933 135.790933 0 0 0-11.6992 16.8192q-2.56 4.411733-4.906666 8.977067c-1.518933 3.0208-2.9952 6.1696-4.206934 9.1904v0.068267a3.003733 3.003733 0 1 1-5.572266-2.2272 2.048 2.048 0 0 1 0.008533-0.221867z" fill="#348902" p-id="1509"></path><path d="M469.4784 337.066667a3.003733 3.003733 0 0 1-2.1248-5.12c1.2032-1.2032 29.866667-29.713067 81.314133-50.679467A287.496533 287.496533 0 0 1 642.961067 260.266667c40.448-2.030933 82.048 4.4544 123.613866 19.293866a2.9952 2.9952 0 0 1-1.988266 5.623467c-40.789333-14.549333-81.536-20.923733-121.173334-18.944a281.2672 281.2672 0 0 0-92.2624 20.48 285.064533 285.064533 0 0 0-58.88 32.494933c-13.3888 9.668267-20.625067 16.896-20.701866 16.9728a2.978133 2.978133 0 0 1-2.090667 0.878934z" fill="#60260F" p-id="1510"></path><path d="M577.289329 219.5928a11.409067 25.5488 69.16 1 0 47.754669-18.178457 11.409067 25.5488 69.16 1 0-47.754669 18.178457Z" fill="#E6FFAE" p-id="1511"></path><path d="M472.413867 335.633067c-4.565333-2.491733-9.284267-4.744533-13.653334-7.517867-8.405333-5.290667-15.880533-13.021867-18.065066-22.7072-1.578667-6.971733-0.597333-15.121067-5.4272-20.394667-5.7088-6.237867-15.872-4.565333-23.765334-7.620266-11.3664-4.4032-16.785067-18.082133-27.8528-23.1936-5.777067-2.670933-12.424533-2.670933-18.773333-1.988267-0.904533 0.1024-1.800533 0.2304-2.696533 0.349867 22.186667 15.906133 45.934933 39.057067 70.638933 96.699733 0 0 10.5984 2.4576 22.997333-3.0464 9.429333-4.1984 14.242133-8.098133 16.597334-10.581333z" fill="#540401" p-id="1512"></path></svg>