<?xml version="1.0" standalone="no"?><!DOCTYPE svg PUBLIC "-//W3C//DTD SVG 1.1//EN" "http://www.w3.org/Graphics/SVG/1.1/DTD/svg11.dtd"><svg t="1779445718872" class="icon" viewBox="0 0 1024 1024" version="1.1" xmlns="http://www.w3.org/2000/svg" p-id="1372" xmlns:xlink="http://www.w3.org/1999/xlink" width="200" height="200"><path d="M746.24 35.84v55.04l28.16-16.64v35.84l34.56-6.4v28.16l80.64-10.24-53.76 42.24 72.96 23.04-34.56 19.2 60.16 17.92-25.6 35.84h38.4l-12.8 69.12 28.16-5.12-20.48 58.88 42.24 14.08-32 37.12 32 21.76-32 33.28 38.4 35.84-43.52 23.04 52.48 55.04-65.28 12.8 33.28 53.76-58.88 7.68 33.28 57.6h-61.44l8.96 51.2-53.76 12.8 34.56 39.68-71.68 7.68 12.8 43.52-48.64-6.4-7.68 49.92-48.64-11.52 12.8 25.6-66.56 5.12 2.56 34.56-49.92-15.36v30.72l-65.28-30.72 6.4 44.8-75.52-44.8-11.52 44.8-42.24-29.44-40.96 29.44-30.72-49.92-28.16 35.84-6.4-47.36-64 24.32-3.84-53.76-55.04 17.92-15.36-60.16H128l8.96-61.44-52.48-8.96 5.12-47.36-48.64-30.72 24.32-48.64L17.92 633.6l30.72-30.72L23.04 563.2l25.6-26.88L23.04 499.2l32-33.28-21.76-39.68 32-19.2-16.64-37.12 40.96-19.2-24.32-26.88 43.52-21.76-6.4-33.28 47.36-8.96-20.48-35.84 44.8-5.12-5.12-38.4h35.84l-7.68-38.4L230.4 156.16l7.68-46.08 34.56 11.52L276.48 87.04l26.88 3.84V61.44l38.4 12.8V35.84L373.76 61.44l12.8-40.96 33.28 24.32 15.36-30.72 20.48 21.76 12.8-21.76 29.44 17.92 28.16-25.6 15.36 29.44 33.28-29.44 12.8 29.44 20.48-21.76 28.16 30.72 33.28-20.48 34.56 46.08L746.24 35.84z" fill="#929B32" p-id="1373"></path><path d="M894.07488 708.03456c-121.07008 245.50144-396.93568 356.87424-616.1664 248.76032-219.22816-108.11648-298.8032-394.7776-177.73056-640.27648 121.07008-245.50144 396.93824-356.87424 616.1664-248.76032 219.22816 108.11648 298.8032 394.7776 177.73056 640.27648z" fill="#929B32" p-id="1374"></path><path d="M711.72864 578.06592c-66.73152 206.06976-258.0608 365.5424-445.80352 312.15104-166.26432-47.2832-237.62688-281.46176-170.8928-487.53152C161.76384 196.61568 353.7536 58.29632 520.01792 105.57696c186.60096 53.0688 258.4448 266.4192 191.71072 472.48896z" fill="#FFF4B3" p-id="1375"></path><path d="M339.4688 462.48704c-61.82144 136.02816-101.38112 333.92896-160.22528 309.7088-97.22112-40.0128-82.17088-273.28256-16.15872-389.7344 79.37792-140.032 221.11488-247.0016 318.33344-206.98624 109.11232 44.91008-80.13056 150.98368-141.94944 287.01184zM450.73664 521.93024c-82.624 124.4928-235.11808 258.8672-175.6416 301.51424 98.26816 70.45888 298.25792-58.62912 360.60416-177.34912 74.9696-142.76096 80.26112-327.06304-18.00704-397.52192-110.28736-79.0784-84.33152 148.864-166.95552 273.3568z" fill="#FDCA09" p-id="1376"></path><path d="M815.936 44.4032c-28.46464 10.07104-77.3888 68.35968-98.29376 96.24576 4.1088 13.60384 27.10272 17.51552 38.08768 17.77152 39.56992-21.01248 120.16384-66.9056 126.00064-82.3552 7.296-19.3152-30.21312-44.25216-65.79456-31.66208z" fill="#929B32" p-id="1377"></path></svg>