<?xml version="1.0" standalone="no"?><!DOCTYPE svg PUBLIC "-//W3C//DTD SVG 1.1//EN" "http://www.w3.org/Graphics/SVG/1.1/DTD/svg11.dtd"><svg t="1779444758760" class="icon" viewBox="0 0 1025 1024" version="1.1" xmlns="http://www.w3.org/2000/svg" p-id="1376" xmlns:xlink="http://www.w3.org/1999/xlink" width="200.1953125" height="200"><path d="M239.4496 348.30336c112.71424-98.50112 282.176-93.952 389.44256 10.45504l33.53088 32.64c109.39648 106.48064 116.41344 279.92064 15.97696 394.89024l-115.39456 132.08832c-108.38784 124.0704-298.69568 131.76832-416.75008 16.86016l-50.44736-49.10336c-120.2432-117.04064-115.01568-311.78496 11.33568-422.20544l132.30592-115.62496z" fill="#FBAD1B" p-id="1377"></path><path d="M260.87936 346.37824c77.86752-66.69824 190.73536-70.0928 269.50912-8.10496 95.24224 74.94912 105.60768 216.26624 22.6176 308.3776l-143.37792 159.13728c-74.69824 82.9056-193.86112 99.17184-283.37664 47.1808-18.0992-10.51136-28.608-47.0528-43.67104-63.15776-15.48032-16.55296-33.65376-10.3424-43.6736-31.0272C2.71616 684.08576 16.6144 555.60448 98.2272 485.70112l162.65216-139.32288z" fill="#FFE371" p-id="1378"></path><path d="M481.23904 331.15648c5.5296-2.74688 8.44544 22.528 9.21344 35.50976 3.45344 6.87104 31.09632-10.30912 34.54976-6.8736 3.456 3.43552-20.72832 26.34496-16.12288 26.34496 4.608 0 27.64032-4.5824 31.09376 0 3.456 4.5824-25.33376 16.03584-24.18176 22.90688 1.14944 6.8736 32.2432 2.2912 35.6992 6.8736 3.456 4.5824-26.48832 6.87104-19.57888 17.18016 6.912 10.30912 19.57888-2.2912 25.33632 9.1648 5.76 11.45344-20.72832 12.59776-20.72832 18.32448 0 5.72928 28.78976 11.456 28.78976 18.32704 0 6.8736-31.09376 6.8736-33.39776 13.74464-2.30144 6.8736 29.94432 18.32704 28.79232 24.05376-1.152 5.72672-39.1552-4.57984-35.70176 4.5824 3.456 9.16224 24.18432 16.03584 26.48832 26.34496 2.304 10.30912-36.8512 8.01792-42.6112 8.01792-5.75744 0 12.66944 14.88896 12.66944 24.05376 0 9.16224-31.09632 2.28864-34.54976 6.87104-3.45344 4.5824 16.12288 21.76256 13.81888 32.07168-2.30144 10.30912-29.94176-5.72672-35.6992 0-5.75744 5.72672 16.12032 13.74464 5.75744 19.47136-10.36544 5.72672-38.00576 8.01792-41.45664 13.74464-3.45344 5.72672 16.12032 21.76256 6.90944 25.20064-9.21344 3.43552-46.06464 4.57984-51.82464 9.16224-5.75744 4.5824 9.21344 19.47136 5.76 27.48928-3.456 8.01792-39.16032-2.2912-44.9152 3.43808-5.75488 5.72672 1.152 19.47136-3.45856 27.48928-4.608 8.01792-26.48576-4.5824-42.60608-4.5824-16.12032 0 9.21344 29.78048 0 29.78048s-27.63776-16.03584-36.8512-6.8736c-9.216 9.1648 3.45344 20.61824-5.75744 21.76512-9.216 1.14432-25.33632-5.72928-34.54976-1.14688s5.76 21.76256 0 26.34496c-5.76 4.5824-31.09376-19.47136-36.8512-18.32704-5.76 1.14688 1.152 26.34496-9.216 26.34496s-19.57632-20.61824-24.18176-20.61824c-4.608 0-6.912 19.47136-11.51744 20.61824-4.608 1.14432-14.97088-14.89152-17.27488-20.61824-2.304-5.72672-17.27232 18.32704-17.27232 12.60032s-18.42688-20.61824-17.27488-26.34496c1.152-5.72672-23.03232-9.16224-23.03232-13.74464 0-4.5824 5.75744-11.45344 5.75744-19.47136 0-8.01792-13.81888-3.43552-16.12288-10.30912-2.304-6.8736 9.21344-16.03584 10.36544-22.90688 1.152-6.8736-16.12288-3.43808-17.27488-11.456-1.152-8.01792 23.03232-16.03584 23.03232-24.05376 0-8.01792-14.97088 0-13.81888-11.45344 1.152-11.45344 26.48576-21.76256 35.6992-32.07168 9.21088-10.30912-26.48832-5.72672-18.42688-19.47136 8.06144-13.74464 31.09376-8.01792 39.1552-19.47136 8.06144-11.45344-13.81888-16.03584-17.27232-28.63616-3.456-12.59776 38.0032-1.14432 48.36864-14.88896 10.36288-13.74464-11.51744-18.32704-4.608-29.78048 6.912-11.456 31.0912 2.28864 35.6992-4.5824 4.608-6.8736-13.81888-21.76256-11.51744-28.63616 2.304-6.87104 40.3072 0 43.76576-6.87104 3.456-6.8736 3.456-19.47136 0-30.92736-3.456-11.45344 36.8512-1.14432 46.06464-9.16224s-12.66944-19.47136-9.21344-29.78048c3.456-10.30912 32.2432 9.16224 43.76064 6.87104 11.51488-2.28864-14.97088-24.0512-11.51744-29.78048 3.456-5.72672 33.3952 13.7472 38.0032 9.1648 4.60544-4.5824-5.76-29.78048 0-35.5072 5.75744-5.72928 17.27488 22.90688 26.48576 19.47136 9.21344-3.43552 4.608-26.34496 9.21344-34.36288 4.608-8.01792 24.18688 19.47136 29.94432 14.89152 5.75744-4.5824-1.152-13.74464 0-25.20064 1.152-11.45344 43.76064 25.20064 51.82208 18.32704 8.06144-6.87104-3.45344-16.03584 0-28.63616 3.456-12.59776 29.94432 35.50976 38.00576 35.50976 8.06144 0 3.45344-32.07168 10.36288-35.50976z" fill="#FFD321" p-id="1379"></path><path d="M85.05344 771.80416C37.12 679.68 399.50336 316.49024 485.03552 380.94336 608 473.6 131.15904 860.41856 85.05344 771.80416z" fill="#FFEEAA" p-id="1380"></path><path d="M959.95904 230.2976c-75.88864-24.2432-173.30688 10.91072-212.5312 31.51616-5.36064 28.02944-7.83616 75.09504 25.15712 39.11936 32.99072-35.97568 138.6624-62.08 187.37408-70.63552z" fill="#0E5927" p-id="1381"></path><path d="M862.5536 285.87008c-47.2832-10.10944-103.61344 8.73216-125.86752 19.4176-2.33728 17.35424 2.5984 45.03296 41.04192 16.90112 38.44096-28.12928 72.56576-35.93472 84.8256-36.31872zM723.37152 144.08704c4.9536 48.09728-19.85024 102.0672-32.87296 123.04128-17.50528 0.45312-44.49024-7.43936-12.38016-42.624 32.11008-35.18464 43.54816-68.27264 45.25312-80.41728zM621.49888 195.712c24.12288 33.88928 2.1888 60.84608-11.79392 70.08768 17.35936 8.39168 52.04992 17.25952 51.95264-14.3872-0.09728-31.65184-26.81344-50.32192-40.15872-55.70048zM748.4672 408.15872c-31.09376-27.63776-60.25728-8.73728-70.95296 4.16768-6.47168-18.16064-11.54816-53.6064 19.90656-50.09664 31.45472 3.5072 47.13472 32.07936 51.0464 45.92896z" fill="#0E5927" p-id="1382"></path><path d="M783.80544 384.40192c-31.0912-27.6352-73.77664-0.58368-84.47232 12.32128-6.46912-18.16064-12.47744-42.73408 24.52224-48.0768 31.32416-4.52352 56.04096 21.90848 59.95008 35.75552z" fill="#0E5927" p-id="1383"></path><path d="M802.68544 345.56416c-37.312-8.30976-74.42432 19.16928-85.12 32.07424-6.46912-18.1632-12.47744-42.73664 24.52224-48.07936 31.32416-4.52096 43.328 5.632 60.59776 16.00512z" fill="#0E5927" p-id="1384"></path><path d="M875.30752 147.05664c-26.52416 9.472-40.29696 27.54048-43.86816 35.38688-7.90528 10.41152-18.56 28.99712 2.06336 20.04224 20.6208-8.95488 36.46208-40.68352 41.8048-55.42912z" fill="#0E5024" p-id="1385"></path><path d="M898.7648 62.31552c-40.81664 25.4848-83.60704 84.98688-94.51776 118.66112 0.41984 11.5584 0.95744 21.02784 12.5184 20.60544 49.9072-38.41792 65.74848-90.84416 81.99936-139.26656z" fill="#23AA50" p-id="1386"></path><path d="M1025.05472 132.07552c-49.50016-0.15872-153.37984 36.8128-199.13216 55.31648 5.30432 11.82208 26.67008 42.1376 42.9056 21.1968 16.23552-20.93824 113.03424-53.67552 156.22656-76.51328z" fill="#41B769" p-id="1387"></path><path d="M874.84672 0.18688c-23.35744 75.0976-100.48512 183.7184-129.45664 221.66016-1.94048 22.97088 17.75616 40.18688 58.70848-18.8544 40.94976-59.04128 64.22784-159.80288 70.74816-202.8032z" fill="#167736" p-id="1388"></path><path d="M988.75648 182.55872c-75.88864-24.2432-173.30688 10.90816-212.5312 31.5136-5.36064 28.032-7.8336 75.0976 25.15712 39.11936 32.99072-35.97568 138.6624-62.08 187.37408-70.63296z" fill="#167736" p-id="1389"></path><path d="M842.14272 158.89408c-42.12736 18.7008-102.51776 66.13504-125.10208 102.32576 7.16032 22.76096 28.31616 62.15424 55.6544 37.6192 27.33824-24.53504 59.25376-93.6448 69.44768-139.94496z" fill="#0E5927" p-id="1390"></path><path d="M789.29152 256.72192c-35.41504 6.69952-49.664 23.86432-57.77664 32.42496-25.77408 35.08224 5.65248 54.70208 37.80096 33.32096 25.72032-17.10336 61.67808-47.87968 75.56608-96.2048-12.0448 9.31328-32.384 26.06848-55.5904 30.45888z" fill="#41B769" p-id="1391"></path><path d="M754.60608 90.1888c-1.22112 53.63456-49.39008 124.5952-73.32096 153.3696-7.744 52.7232-1.3568 133.76 53.14048 25.9456 54.49728-107.81696 33.41056-165.31712 20.18048-179.31776z" fill="#167736" p-id="1392"></path><path d="M691.46368 188.3648c11.03616 44.23168-2.24256 80.2944-10.26048 92.79744-21.43488 27.86048-65.1008 71.16032-68.288 21.48096-3.18976-49.67936 51.03872-96.88576 78.54848-114.2784z" fill="#1A8D40" p-id="1393"></path><path d="M801.03168 310.4512c-42.78272-15.73888-80.06656-6.4256-93.3632 0.19712-30.00832 18.30656-77.76256 57.05216-28.71808 65.57696 49.04704 8.5248 101.824-40.29696 122.08128-65.77408z" fill="#167736" p-id="1394"></path><path d="M747.55584 246.43072c-81.26208 9.2416-117.52704 39.79776-115.46368 59.84 2.06336 20.03968 39.76704 59.83488 60.60032 43.13088 16.6656-13.3632 56.22016-50.45248 54.86336-102.97088z" fill="#23AA50" p-id="1395"></path><path d="M661.13024 247.70816c-8.8192 7.91552-16.22272 54.36416-18.82368 76.60032 7.4624 17.18528 25.34656 43.32544 37.1968 10.40128s-7.31136-71.7184-18.37312-87.0016z" fill="#229448" p-id="1396"></path><path d="M725.08672 326.26688c-7.6672-9.03168-53.89568-17.71264-76.05248-20.92544-17.38496 6.98624-44.0064 24.14592-11.42272 36.89728 32.58624 12.75136 71.89504-5.33504 87.4752-15.97184z" fill="#268245" p-id="1397"></path><path d="M625.28256 244.10368c60.33408 51.81184 47.02976 103.65952 22.29248 140.70272-12.83072 11.85536-44.12672 24.01792-66.66496-22.1824-22.53824-46.20288 15.8208-97.7664 44.37248-118.52032z" fill="#167736" p-id="1398"></path><path d="M737.4848 338.01728c-17.06752-8.52224-123.2384-14.59968-137.29536 10.73664-6.65856 11.99872 12.3008 72.77568 45.36064 75.95776 33.05984 3.18208 76.92288-27.0464 91.93472-86.6944z" fill="#1A8D40" p-id="1399"></path><path d="M659.17952 425.408a7.68256 7.68256 0 0 1 9.67424 4.28288l0.13824 0.36864 13.31712 37.3376 23.16288-7.50336a7.68 7.68 0 0 1 4.736 14.60992l-22.73792 7.36256 34.36288 96.33792c0.63488-0.29696 1.2416-0.57344 1.80992-0.84224 1.792-0.84224 3.2256-1.52576 4.27776-2.04032 1.10848-0.54016 1.536-0.77056 1.56672-0.78592a7.68 7.68 0 1 1 7.90528 13.16864c-1.0624 0.63744-3.80928 1.9584-7.20896 3.5584-0.96512 0.45312-2.02496 0.93952-3.16928 1.472l13.6576 38.2848 0.12544 0.37632a7.68256 7.68256 0 0 1-14.4512 5.15328l-0.13824-0.36864-13.19424-36.98944a8519.6416 8519.6416 0 0 1-43.78112 19.84512 14585.36448 14585.36448 0 0 1-64.832 28.98688l21.7088 71.26528 92.51328-43.98336a7.68 7.68 0 0 1 6.59456 13.87008l-94.58176 44.9664 20.55168 67.46112 0.10496 0.37888a7.68 7.68 0 1 1-14.67392 4.46976l-0.12544-0.37376-19.88352-65.26464-141.35552 67.21024 18.43456 83.23584 108.4928-50.8544a7.68 7.68 0 1 1 6.51776 13.91104l-111.60832 52.3136 10.88768 49.152 0.0768 0.38656a7.68256 7.68256 0 0 1-14.97856 3.31776l-0.09472-0.38656-10.14272-45.78816-155.51488 72.896 2.8416 20.07808 0.04352 0.39168a7.68 7.68 0 0 1-15.18848 2.14784l-0.06656-0.38912-2.17856-15.40864-31.7568 14.88896a7.68 7.68 0 1 1-6.51776-13.91104l36.02432-16.88832-14.27968-100.98944 161.36704-76.7232-6.87104-31.02464-0.0768-0.38656a7.68256 7.68256 0 0 1 14.97856-3.31776l0.09472 0.38656 6.1056 27.57632 140.24192-66.68032-21.83424-71.66208c-11.6992 5.17888-22.86848 10.10176-32.93696 14.5024a7.68 7.68 0 0 1-6.14912-14.07488c10.5344-4.60544 22.27712-9.78432 34.58048-15.22944l-8.13312-26.69568-0.10496-0.37888a7.68 7.68 0 1 1 14.67392-4.47232l0.12544 0.37632 7.58272 24.896a14673.36704 14673.36704 0 0 0 63.03744-28.18816 8230.8352 8230.8352 0 0 0 44.90496-20.35968l-34.97728-98.06848-53.52704 17.34144a7.68 7.68 0 1 1-4.736-14.60992l53.09952-17.20064-13.16352-36.91264-0.12544-0.37632a7.67744 7.67744 0 0 1 4.77696-9.43616zM206.53824 884.52608a7.68 7.68 0 0 1 8.40448 6.41792l0.0512 0.39424 8.96 83.2 0.03328 0.39424a7.68 7.68 0 0 1-15.24992 1.64352l-0.0512-0.39424-8.96-83.2-0.03328-0.39424a7.67744 7.67744 0 0 1 6.84544-8.06144z m106.49344 0.62464l12.04224 85.1456 154.36032-72.35584-18.41408-83.15392-147.98848 70.36416z" fill="#E59F1B" p-id="1400"></path></svg>