<?xml version="1.0" standalone="no"?><!DOCTYPE svg PUBLIC "-//W3C//DTD SVG 1.1//EN" "http://www.w3.org/Graphics/SVG/1.1/DTD/svg11.dtd"><svg t="1779444769858" class="icon" viewBox="0 0 1024 1024" version="1.1" xmlns="http://www.w3.org/2000/svg" p-id="1555" xmlns:xlink="http://www.w3.org/1999/xlink" width="200" height="200"><path d="M994.56768 555.42784c-26.08384 263.09888-260.51584 455.23712-523.61472 429.15328C207.85408 958.49472 15.71328 724.06528 41.79968 460.9664 67.88608 197.86496 302.31552 5.72672 565.4144 31.81056c263.09888 26.0864 455.23712 260.51584 429.15328 523.61728z" fill="#F6C602" p-id="1556"></path><path d="M760.09472 497.32096c13.25824 209.34912-117.21472 417.37216-327.21664 430.67392-185.97632 11.776-349.34272-177.6384-362.5984-386.98752-13.2608-209.34912 126.13888-398.35904 312.1152-410.1376 208.72704-13.21728 364.4416 157.10208 377.69984 366.4512z" fill="#FAF7F5" p-id="1557"></path><path d="M380.54656 488.28672c9.53088 10.77504 19.92448 5.2736 22.15168-5.64736 2.2272-10.92096-5.48608-279.03232-19.25376-304.01536-13.76768-24.9856-55.3216-11.72736-81.68448-0.57856-26.36544 11.15392-77.0432 41.984-66.84672 73.30048 10.19392 31.31392 136.1024 226.1632 145.63328 236.9408z m31.7184-16.47872c0.66304 10.47296 7.54432 22.6688 16.86528 14.3616s165.85728-196.38784 167.33696-217.43616c1.47712-21.04576-31.10144-60.032-71.19872-81.1776-40.09216-21.14048-111.44448-47.80032-115.71968-10.5856-4.2752 37.21472 2.05312 284.35968 2.71616 294.83776z m23.00416 26.93632c-3.40736 8.56576 0.94976 24.17152 14.10816 27.47648 13.16096 3.30496 236.96896-30.22848 250.65984-44.24448 13.69344-14.016 2.9184-56.50688-12.84352-100.54144s-49.82784-106.46528-65.91744-96.16896c-16.0896 10.30144-182.60224 204.91776-186.00704 213.4784z" fill="#FFD93F" p-id="1558"></path><path d="M434.67776 553.82272c5.42464 8.35072 204.21632 174.68416 229.17376 173.10464 24.96-1.58208 36.50048-68.32128 40.69888-104.30208 4.20096-35.97824 12.8384-80.27136-5.41696-85.55264-18.25792-5.27872-247.33696-5.30688-256.55552-4.7232-9.22368 0.58368-13.32224 13.12256-7.90016 21.47328z m-16.2304 16.87808c0.61952 9.80736 19.55584 287.81056 36.8896 309.3248 17.3312 21.5168 84.95616-13.504 109.41952-28.1728 24.46336-14.6688 76.81792-59.86304 67.16416-74.84672-9.65376-14.98368-189.19936-202.688-196.44416-210.56768-7.23968-7.8848-17.64864-5.5424-17.02656 4.26496l-0.00256-0.00256zM391.08608 566.89152c5.11744-9.23136 16.98048-11.78112 21.56544 2.22464 4.57984 14.00576 6.54592 282.35264-7.56992 307.22304-14.11584 24.87552-36.66176 17.71776-75.1104 4.75648-38.44608-12.96384-74.7264-27.968-76.30592-52.94592-1.58208-24.97536 132.30336-252.02688 137.4208-261.25824z m-29.05088-36.69248c16.23808 1.71008 27.42784 15.5776 22.83264 26.97216-4.5952 11.392-130.58048 216.33792-159.98208 231.09376-29.39904 14.75584-71.17056-32.72192-98.04032-102.71488-26.8672-69.99296-43.55584-134.11072-22.33088-158.09536 21.2224-23.98464 241.28512 1.0368 257.52064 2.74432z" fill="#FFE26D" p-id="1559"></path><path d="M384.4608 504.2048c-6.0928-11.70176-152.31232-227.712-170.3168-232.67072-24.36096-6.71232-56.76288 15.80544-85.30432 77.14304-28.54144 61.34272-42.25024 115.54304-18.73664 136.87296 23.5136 21.32992 254.63808 36.3392 262.96832 35.81184 8.33536-0.52736 17.47712-5.46048 11.38688-17.15712h0.00256z" fill="#FFD93F" p-id="1560"></path></svg>